# Blender 5.1.2
# www.blender.org
mtllib arrow.mtl
o Cube
v 0.039365 1.120626 -1.903090
v -0.000000 1.081261 -1.903090
v 0.039365 1.120626 1.903090
v -0.000000 1.081261 1.903090
v 0.000000 1.159991 -1.903090
v -0.039365 1.120626 -1.903090
v 0.000000 1.159991 1.903090
v -0.039365 1.120626 1.903090
v -0.000000 1.408025 -1.712000
v -0.000000 0.832025 -1.712000
v -0.000000 1.408025 -2.288000
v -0.000000 0.832025 -2.288000
v 0.057000 1.120025 -1.460000
v 0.057000 1.120025 -1.940000
v -0.057000 1.120025 -1.460000
v -0.057000 1.120025 -1.940000
v 0.000000 0.800244 1.473901
v -0.000000 1.440961 1.473901
v -0.000000 1.120603 2.434975
v -0.100000 1.120603 1.473901
v -0.100000 1.120603 1.473901
v -0.100000 1.120603 1.473901
v -0.100000 1.120603 1.473901
v -0.100000 1.120603 1.473901
v 0.100000 1.120603 1.473901
vn 0.7071 -0.7071 -0.0000
vn -0.0000 -0.0000 1.0000
vn -0.7071 0.7071 -0.0000
vn -0.0000 -0.0000 -1.0000
vn 0.7071 0.7071 -0.0000
vn -0.7071 -0.7071 -0.0000
vn 0.9810 -0.1942 -0.0000
vn 0.9810 0.1942 -0.0000
vn -0.9810 -0.1942 -0.0000
vn -0.9810 0.1942 -0.0000
vn -0.0000 0.7704 -0.6376
vn -0.0000 -0.7704 -0.6376
vn -0.0000 -0.6585 0.7526
vn -0.0000 0.6585 0.7526
vn -0.9499 0.2965 0.0988
vn -0.9499 -0.2965 0.0988
vn 0.9499 0.2965 0.0988
vn 0.9499 -0.2965 0.0988
vt 0.661715 0.938817
vt 0.577514 0.938817
vt 0.577514 0.854616
vt 0.661715 0.854616
vt 0.998518 0.938817
vt 0.914317 0.938817
vt 0.914317 0.854616
vt 0.998518 0.854616
vt 0.745915 0.938817
vt 0.661715 0.938817
vt 0.661715 0.854616
vt 0.745915 0.854616
vt 1.000000 0.084201
vt 0.915799 0.084201
vt 0.915799 -0.000000
vt 1.000000 -0.000000
vt 0.830116 0.854616
vt 0.830116 0.938817
vt 0.914317 0.854616
vt 0.914317 0.938817
vt 0.830116 0.938817
vt 0.830116 0.854616
vt 0.928540 0.822619
vt 0.917923 0.822459
vt 0.915799 0.453410
vt 0.928540 0.453602
vt 0.928540 0.084393
vt 0.941281 0.084201
vt 0.939157 0.453249
vt 0.928540 0.453410
vt 0.915799 0.453410
vt 0.915799 0.084393
vt 0.928540 0.084201
vt 0.926417 0.453250
vt 0.928540 0.822426
vt 0.928540 0.453410
vt 0.939158 0.453571
vt 0.941281 0.822619
vt 0.746657 -0.000000
vt 0.746657 0.444046
vt 0.577514 0.410570
vt 0.577514 0.854616
vt 0.746657 0.444046
vt 0.746657 -0.000000
vt 0.915799 0.410570
vt 0.915799 0.854616
vt 0.433136 0.462528
vt 0.577514 0.507596
vt 0.288757 0.925056
vt 0.577514 -0.000000
vt 0.746657 0.854616
vt 0.288757 0.417460
vt 0.288757 0.925057
vt 0.000000 0.507596
vt 0.288757 0.417461
vt 0.000000 0.000000
s 0
usemtl Material.001
f 1/1/1 3/4/1 4/3/1 2/2/1
f 3/5/2 7/8/2 8/7/2 4/6/2
f 7/9/3 5/12/3 6/11/3 8/10/3
f 5/13/4 1/16/4 2/15/4 6/14/4
f 3/17/5 1/12/5 5/9/5 7/18/5
f 8/19/6 6/22/6 2/21/6 4/20/6
f 13/23/7 10/26/7 12/25/7 14/24/7
f 9/27/8 13/30/8 14/29/8 11/28/8
f 15/31/9 16/34/9 12/33/9 10/32/9
f 9/35/10 11/38/10 16/37/10 15/36/10
f 12/39/11 16/41/11 14/40/11
f 14/40/12 16/41/12 11/42/12
f 13/43/13 15/45/13 10/44/13
f 9/46/14 15/45/14 13/43/14
f 19/47/15 18/49/15 20/48/15
f 17/50/16 19/47/16 20/48/16
f 18/51/6 22/51/6 21/51/6
f 18/51/6 21/51/6 20/51/6
f 20/51/6 21/51/6 17/51/6
f 21/51/6 22/51/6 17/51/6
f 23/51/6 24/51/6 17/51/6
f 18/51/6 24/51/6 23/51/6
f 18/51/6 23/51/6 22/51/6
f 22/51/6 23/51/6 17/51/6
f 19/47/17 25/52/17 18/49/17
f 17/50/18 25/52/18 19/47/18
f 18/53/4 25/55/4 24/54/4
f 24/54/4 25/55/4 17/56/4
