# Blender 5.1.2
# www.blender.org
mtllib bows.mtl
o Plane.002
v -0.646451 2.179321 -0.832983
v 0.001263 1.930268 -0.785457
v -0.646451 1.632769 -1.230077
v 0.001263 1.664531 -0.978527
v 0.001263 1.949646 -0.812128
v 0.001263 1.683908 -1.005198
v -0.230843 1.666743 -1.034648
v -0.230843 1.982958 -0.804904
v -0.223274 1.635348 -0.991435
v -0.223274 1.951563 -0.761692
v -0.708507 2.067725 -0.679385
v -0.708507 1.521173 -1.076478
v -0.764357 1.544080 -1.108006
v -0.764357 2.090632 -0.710913
v -0.742637 2.143199 -0.783266
v -0.742637 1.596647 -1.180359
v -0.435421 1.652940 -1.159760
v -0.435421 2.106213 -0.830438
v -0.473086 1.564276 -1.037528
v -0.473086 2.017362 -0.708342
v 0.648977 1.632769 -1.230077
v -0.186819 1.618155 -0.974292
v 0.648977 2.179321 -0.832983
v -0.186819 1.674898 -1.052394
v 0.183322 1.618155 -0.974292
v 0.183322 1.674898 -1.052393
v 0.233369 1.982958 -0.804904
v 0.233369 1.666743 -1.034647
v 0.225800 1.951563 -0.761691
v 0.225800 1.635348 -0.991435
v 0.711033 1.521173 -1.076478
v 0.711033 2.067726 -0.679385
v 0.766883 2.090632 -0.710913
v 0.766883 1.544080 -1.108006
v 0.745164 1.596647 -1.180359
v 0.745164 2.143199 -0.783266
v 0.437948 2.106212 -0.830438
v 0.437948 1.652940 -1.159760
v 0.475612 2.017362 -0.708342
v 0.475612 1.564276 -1.037528
v -0.186819 1.933878 -0.744906
v -0.186819 1.990622 -0.823007
v 0.183322 1.933878 -0.744906
v 0.183322 1.990622 -0.823007
v -0.001749 1.665401 -1.070039
v -0.001749 1.598438 -0.977872
v -0.001749 1.943375 -0.727261
v -0.001749 2.010338 -0.819427
v -0.209242 1.627400 -1.027239
v 0.205745 1.627400 -1.027239
v 0.205745 1.981376 -0.770060
v -0.209242 1.981376 -0.770060
v -0.001749 1.997752 -0.758162
v -0.001749 1.611024 -1.039137
v 0.205712 1.776016 -0.859599
v 0.205712 1.832760 -0.937700
v -0.209209 1.776016 -0.859599
v -0.209209 1.832760 -0.937700
v -0.001749 1.837870 -0.944733
v -0.001749 1.770907 -0.852566
v -0.234345 1.804388 -0.898650
v 0.230848 1.804388 -0.898649
v 0.646451 2.179321 0.832983
v -0.001263 1.930268 0.785457
v 0.646451 1.632769 1.230077
v -0.001263 1.664531 0.978527
v -0.001263 1.949646 0.812128
v -0.001263 1.683908 1.005198
v 0.230843 1.666743 1.034647
v 0.230843 1.982959 0.804904
v 0.223274 1.635348 0.991435
v 0.223274 1.951563 0.761691
v 0.708507 2.067726 0.679385
v 0.708507 1.521173 1.076479
v 0.764357 1.544080 1.108006
v 0.764357 2.090632 0.710913
v 0.742637 2.143199 0.783266
v 0.742637 1.596647 1.180359
v 0.435421 1.652940 1.159760
v 0.435421 2.106213 0.830438
v 0.473086 1.564276 1.037528
v 0.473086 2.017362 0.708342
v -0.648977 1.632769 1.230076
v 0.186819 1.618155 0.974292
v -0.648977 2.179321 0.832983
v 0.186819 1.674899 1.052393
v -0.183322 1.618155 0.974292
v -0.183322 1.674899 1.052393
v -0.233369 1.982959 0.804904
v -0.233369 1.666743 1.034648
v -0.225800 1.951563 0.761691
v -0.225800 1.635348 0.991435
v -0.711033 1.521173 1.076478
v -0.711033 2.067726 0.679385
v -0.766883 2.090632 0.710913
v -0.766883 1.544080 1.108006
v -0.745164 1.596647 1.180359
v -0.745164 2.143199 0.783266
v -0.437948 2.106213 0.830437
v -0.437948 1.652940 1.159759
v -0.475613 2.017362 0.708342
v -0.475613 1.564276 1.037528
v 0.186819 1.933878 0.744906
v 0.186819 1.990622 0.823007
v -0.183322 1.933878 0.744906
v -0.183322 1.990622 0.823007
v 0.001749 1.665401 1.070038
v 0.001749 1.598438 0.977872
v 0.001749 1.943375 0.727261
v 0.001749 2.010338 0.819427
v 0.209242 1.627400 1.027239
v -0.205745 1.627400 1.027239
v -0.205745 1.981376 0.770060
v 0.209242 1.981376 0.770060
v 0.001749 1.997753 0.758162
v 0.001749 1.611024 1.039137
v -0.205712 1.776016 0.859599
v -0.205712 1.832760 0.937700
v 0.209209 1.776016 0.859599
v 0.209209 1.832760 0.937700
v 0.001749 1.837870 0.944733
v 0.001749 1.770907 0.852566
v 0.234345 1.804388 0.898649
v -0.230848 1.804388 0.898649
vn -0.3709 0.5459 -0.7513
vn -0.0000 -0.5878 0.8090
vn -0.0000 0.5878 -0.8090
vn 0.3336 0.5541 -0.7627
vn 0.0208 -0.5877 0.8088
vn -0.4419 -0.5273 0.7257
vn -0.9353 -0.2080 0.2863
vn -0.8137 0.3416 -0.4702
vn 0.2362 0.5712 -0.7861
vn -0.0199 -0.5877 0.8089
vn 0.3709 0.5459 -0.7513
vn -0.4757 -0.7987 0.3684
vn -0.4757 0.1035 -0.8735
vn 0.4757 -0.7987 0.3684
vn 0.4757 0.1035 -0.8735
vn -0.3336 0.5541 -0.7627
vn -0.0208 -0.5877 0.8088
vn 0.4419 -0.5273 0.7257
vn 0.9353 -0.2080 0.2863
vn 0.8137 0.3416 -0.4702
vn -0.2362 0.5712 -0.7861
vn 0.0199 -0.5877 0.8089
vn -0.4757 -0.1036 0.8735
vn -0.4757 0.7987 -0.3684
vn 0.4757 -0.1036 0.8735
vn 0.4757 0.7987 -0.3684
vn -0.0000 -0.2946 -0.9556
vn -0.0000 -0.9999 0.0151
vn -0.0000 0.2946 0.9556
vn -0.0000 0.9999 -0.0151
vn -0.1860 -0.7949 -0.5775
vn 0.1860 -0.7949 -0.5775
vn 0.1860 0.7949 0.5775
vn -0.1860 0.7949 0.5775
vn -0.0000 0.8090 0.5878
vn -0.0000 -0.8090 -0.5878
vn 0.5416 -0.4941 0.6801
vn 0.5416 0.4941 -0.6801
vn -0.5416 -0.4941 0.6801
vn -0.5416 0.4941 -0.6801
vn -1.0000 -0.0000 -0.0000
vn 1.0000 -0.0000 -0.0000
vn 0.0775 0.5860 0.8066
vn -0.0000 -0.5878 -0.8090
vn 0.1418 0.5818 0.8008
vn -0.0000 0.5878 0.8090
vn -0.1527 0.5809 0.7995
vn -0.2894 0.5626 0.7744
vn -0.0219 -0.5876 -0.8088
vn -0.0227 -0.5876 -0.8088
vn 0.3628 -0.5477 -0.7539
vn 0.1379 -0.5822 -0.8013
vn 0.6602 -0.4415 -0.6077
vn 0.9998 -0.0117 -0.0161
vn 0.6015 0.4695 0.6463
vn 0.9121 0.2410 0.3317
vn -0.3354 0.5537 0.7621
vn -0.2342 0.5714 0.7865
vn 0.0125 -0.5877 -0.8090
vn 0.0123 -0.5877 -0.8090
vn -0.1418 0.5818 0.8008
vn 0.1408 -0.8139 -0.5636
vn -0.0775 0.5860 0.8066
vn 0.3938 0.3204 0.8616
vn -0.1408 -0.8139 -0.5636
vn -0.3938 0.3204 0.8616
vn 0.2894 0.5626 0.7744
vn 0.1527 0.5809 0.7995
vn 0.0227 -0.5876 -0.8088
vn 0.0219 -0.5876 -0.8088
vn -0.1379 -0.5822 -0.8013
vn -0.3628 -0.5477 -0.7539
vn -0.9998 -0.0117 -0.0161
vn -0.6602 -0.4415 -0.6077
vn -0.9121 0.2410 0.3317
vn -0.6015 0.4695 0.6463
vn 0.2342 0.5714 0.7865
vn 0.3354 0.5537 0.7621
vn -0.0123 -0.5877 -0.8090
vn -0.0125 -0.5877 -0.8090
vn 0.3938 -0.3204 -0.8616
vn 0.1408 0.8139 0.5636
vn -0.3938 -0.3204 -0.8616
vn -0.1408 0.8139 0.5636
vn -0.0000 0.3698 0.9291
vn -0.0000 -0.8229 -0.5682
vn -0.0000 -0.3698 -0.9291
vn -0.0000 0.8229 0.5682
vn 0.6699 -0.7064 0.2286
vn -0.6699 -0.7064 0.2286
vn -0.6699 0.7064 -0.2286
vn 0.6699 0.7064 -0.2286
vn -0.0000 0.8784 -0.4779
vn -0.0000 -0.8784 0.4779
vn -0.3201 -0.5745 -0.7533
vn -0.3201 0.5745 0.7533
vn 0.3201 -0.5745 -0.7533
vn 0.3201 0.5745 0.7533
vn -0.0000 0.5881 0.8088
vn -0.0000 -0.5881 -0.8088
vt 0.000000 0.000000
vt 0.000000 1.000000
vt 0.250000 0.000000
vt 0.500000 0.000000
vt 0.500000 1.000000
vt 0.250000 1.000000
vt 0.125000 0.000000
vt 0.125000 1.000000
vt 0.500000 0.125000
vt 0.625000 0.125000
vt 0.625000 0.250000
vt 0.500000 0.250000
vt 0.500000 0.375000
vt 0.625000 0.375000
vt 0.625000 0.500000
vt 0.500000 0.500000
vt 0.500000 0.625000
vt 0.625000 0.625000
vt 0.625000 0.750000
vt 0.500000 0.750000
vt 0.500000 0.875000
vt 0.625000 0.875000
vt 0.625000 1.000000
vt 0.250000 0.625000
vt 0.375000 0.625000
vt 0.375000 0.750000
vt 0.250000 0.750000
vt 0.750000 0.625000
vt 0.875000 0.625000
vt 0.875000 0.750000
vt 0.750000 0.750000
vt 0.750000 0.500000
vt 0.875000 0.500000
vt 0.250000 0.500000
vt 0.375000 0.500000
vt 0.625000 0.000000
vt 0.375000 0.000000
vt 0.375000 0.125000
vt 0.375000 0.875000
vt 0.375000 1.000000
vt 0.375000 0.375000
vt 0.375000 0.250000
vt 0.125000 0.500000
vt 0.125000 0.625000
vt 0.125000 0.750000
s 1
usemtl Material
f 10/1/5 9/2/5 4/2/2 2/1/2
f 8/3/4 5/4/3 6/5/3 7/6/4
f 18/7/9 8/3/4 7/6/4 17/8/9
f 15/1/8 16/2/8 13/2/7 14/1/7
f 14/1/7 13/2/7 12/2/6 11/1/6
f 20/1/10 19/2/10 9/2/5 10/1/5
f 1/1/1 3/2/1 16/2/8 15/1/8
f 1/1/1 18/7/9 17/8/9 3/2/1
f 11/1/6 12/2/6 19/2/10 20/1/10
f 30/1/17 29/2/17 2/2/2 4/1/2
f 28/3/16 6/4/3 5/5/3 27/6/16
f 38/7/21 28/3/16 27/6/16 37/8/21
f 35/1/20 36/2/20 33/2/19 34/1/19
f 34/1/19 33/2/19 32/2/18 31/1/18
f 40/1/22 39/2/22 29/2/17 30/1/17
f 21/1/11 23/2/11 36/2/20 35/1/20
f 21/1/11 38/7/21 37/8/21 23/2/11
f 31/1/18 32/2/18 39/2/22 40/1/22
f 54/9/36 45/10/27 26/11/15 50/12/32
f 62/13/42 56/14/38 44/15/26 51/16/33
f 53/17/35 48/18/30 42/19/24 52/20/34
f 61/21/41 58/22/40 24/23/13 49/5/31
f 60/24/2 47/25/29 41/26/23 57/27/39
f 59/28/3 45/29/27 24/30/13 58/31/40
f 56/32/38 26/33/15 45/29/27 59/28/3
f 55/34/37 43/35/25 47/25/29 60/24/2
f 51/16/33 44/15/26 48/18/30 53/17/35
f 49/4/31 24/36/13 45/10/27 54/9/36
f 22/37/12 49/4/31 54/9/36 46/38/28
f 43/35/25 51/16/33 53/17/35 47/25/29
f 57/39/39 61/21/41 49/5/31 22/40/12
f 47/25/29 53/17/35 52/20/34 41/26/23
f 55/41/37 62/13/42 51/16/33 43/35/25
f 46/38/28 54/9/36 50/12/32 25/42/14
f 25/42/14 50/12/32 62/13/42 55/41/37
f 41/26/23 52/20/34 61/21/41 57/39/39
f 25/43/14 55/34/37 60/24/2 46/44/28
f 44/15/26 56/32/38 59/28/3 48/18/30
f 48/18/30 59/28/3 58/31/40 42/19/24
f 46/44/28 60/24/2 57/27/39 22/45/12
f 52/20/34 42/19/24 58/22/40 61/21/41
f 50/12/32 26/11/15 56/14/38 62/13/42
f 72/1/50 71/2/49 66/2/44 64/1/44
f 70/3/48 67/4/46 68/5/46 69/6/47
f 80/7/58 70/3/48 69/6/47 79/8/57
f 77/1/55 78/2/56 75/2/53 76/1/54
f 76/1/54 75/2/53 74/2/52 73/1/51
f 82/1/60 81/2/59 71/2/49 72/1/50
f 63/1/43 65/2/45 78/2/56 77/1/55
f 63/1/43 80/7/58 79/8/57 65/2/45
f 73/1/51 74/2/52 81/2/59 82/1/60
f 92/1/70 91/2/69 64/2/44 66/1/44
f 90/3/68 68/4/46 67/5/46 89/6/67
f 100/7/78 90/3/68 89/6/67 99/8/77
f 97/1/75 98/2/76 95/2/73 96/1/74
f 96/1/74 95/2/73 94/2/72 93/1/71
f 102/1/80 101/2/79 91/2/69 92/1/70
f 83/1/61 85/2/63 98/2/76 97/1/75
f 83/1/61 100/7/78 99/8/77 85/2/63
f 93/1/71 94/2/72 101/2/79 102/1/80
f 116/9/94 107/10/85 88/11/66 112/12/90
f 124/13/41 118/14/96 106/15/84 113/16/91
f 115/17/93 110/18/88 104/19/82 114/20/92
f 123/21/42 120/22/98 86/23/64 111/5/89
f 122/24/100 109/25/87 103/26/81 119/27/97
f 121/28/99 107/29/85 86/30/64 120/31/98
f 118/32/96 88/33/66 107/29/85 121/28/99
f 117/34/95 105/35/83 109/25/87 122/24/100
f 113/16/91 106/15/84 110/18/88 115/17/93
f 111/4/89 86/36/64 107/10/85 116/9/94
f 84/37/62 111/4/89 116/9/94 108/38/86
f 105/35/83 113/16/91 115/17/93 109/25/87
f 119/39/97 123/21/42 111/5/89 84/40/62
f 109/25/87 115/17/93 114/20/92 103/26/81
f 117/41/95 124/13/41 113/16/91 105/35/83
f 108/38/86 116/9/94 112/12/90 87/42/65
f 87/42/65 112/12/90 124/13/41 117/41/95
f 103/26/81 114/20/92 123/21/42 119/39/97
f 87/43/65 117/34/95 122/24/100 108/44/86
f 106/15/84 118/32/96 121/28/99 110/18/88
f 110/18/88 121/28/99 120/31/98 104/19/82
f 108/44/86 122/24/100 119/27/97 84/45/62
f 114/20/92 104/19/82 120/22/98 123/21/42
f 112/12/90 88/11/66 118/14/96 124/13/41
