# Blender 5.1.2
# www.blender.org
mtllib sign.mtl
o Cube
v 0.213977 4.733655 -0.228273
v 0.213977 1.294744 -0.228273
v 0.213977 4.733655 0.228273
v 0.213977 1.294744 0.228273
v -0.242569 4.733655 -0.228273
v -0.242569 1.294744 -0.228273
v -0.242569 4.733655 0.228273
v -0.242569 1.294744 0.228273
v -0.025679 2.418993 1.800293
v -0.025679 4.476470 1.800293
v -0.025679 2.418993 -1.800293
v -0.025679 4.476470 -1.800293
v 0.254271 2.418993 1.800293
v 0.254271 4.476470 1.800293
v 0.254271 2.418993 -1.800293
v 0.254271 4.476470 -1.800293
vn 0.5774 0.5774 -0.5774
vn 0.5774 -0.5774 -0.5774
vn 0.5774 0.5774 0.5774
vn 0.5774 -0.5774 0.5774
vn -0.5774 0.5774 -0.5774
vn -0.5774 -0.5774 -0.5774
vn -0.5774 0.5774 0.5774
vn -0.5774 -0.5774 0.5774
vt 0.201172 0.510777
vt 0.201172 0.604925
vt 0.101311 0.604925
vt 0.101311 0.510777
vt 0.101311 0.094691
vt 0.001451 0.510778
vt 0.001451 0.094691
vt 0.400893 0.094691
vt 0.400893 0.510777
vt 0.301033 0.510777
vt 0.301033 0.094691
vt 0.201172 0.000544
vt 0.201172 0.094691
vt 0.101311 0.000544
vt 0.468635 0.351990
vt 0.923983 0.351990
vt 0.923983 0.601990
vt 0.468635 0.601990
vt 0.923983 0.672353
vt 0.468635 0.672353
vt 0.921309 0.672132
vt 0.921309 0.922574
vt 0.471309 0.922574
vt 0.471309 0.672132
vt 0.468635 0.922353
vt 0.923983 0.922353
vt 0.923983 1.000098
vt 0.468635 1.000098
vt 0.394032 0.672353
vt 0.394032 0.922353
vt 0.998586 0.672353
vt 0.998586 0.922353
s 1
usemtl Material
f 1/1/1 5/2/5 7/3/7 3/4/3
f 4/5/4 3/4/3 7/6/7 8/7/8
f 8/8/8 7/9/7 5/10/5 6/11/6
f 6/12/6 2/13/2 4/5/4 8/14/8
f 2/13/2 1/1/1 3/4/3 4/5/4
f 6/11/6 5/10/5 1/1/1 2/13/2
f 9/15/8 10/16/7 12/17/5 11/18/6
f 11/18/6 12/17/5 16/19/1 15/20/2
f 15/21/2 16/22/1 14/23/3 13/24/4
f 13/25/4 14/26/3 10/27/7 9/28/8
f 11/29/6 15/20/2 13/25/4 9/30/8
f 16/19/1 12/31/5 10/32/7 14/26/3
