# Blender 5.1.2
# www.blender.org
mtllib soldiercap.mtl
o Sphere.001
v 0.000000 2.626162 0.000000
v 0.000000 2.440779 -0.611127
v 0.000000 2.137290 -0.914617
v 0.000000 1.740762 -1.078864
v -0.000000 1.429340 -1.324659
v 0.041866 2.605026 -0.210476
v 0.082124 2.542429 -0.412863
v 0.119225 2.440779 -0.599385
v 0.151745 2.303980 -0.762872
v 0.178433 2.137290 -0.897042
v 0.198264 1.947114 -0.996740
v 0.210476 1.740762 -1.058134
v 0.258428 1.429340 -1.299206
v 0.082124 2.605026 -0.198264
v 0.161091 2.542429 -0.388909
v 0.233868 2.440779 -0.564608
v 0.297658 2.303980 -0.718610
v 0.350009 2.137290 -0.844995
v 0.388909 1.947114 -0.938909
v 0.412863 1.740762 -0.996740
v 0.506925 1.429340 -1.223825
v 0.119225 2.605026 -0.178433
v 0.233868 2.542429 -0.350009
v 0.339524 2.440779 -0.508134
v 0.432132 2.303980 -0.646732
v 0.508134 2.137290 -0.760476
v 0.564608 1.947114 -0.844995
v 0.599385 1.740762 -0.897042
v 0.735941 1.429340 -1.101413
v 0.151745 2.605026 -0.151745
v 0.297658 2.542429 -0.297658
v 0.432132 2.440779 -0.432132
v 0.550000 2.303980 -0.550000
v 0.646731 2.137290 -0.646731
v 0.718610 1.947114 -0.718610
v 0.762872 1.740762 -0.762872
v 0.936675 1.429340 -0.936675
v 0.178433 2.605026 -0.119225
v 0.350009 2.542429 -0.233868
v 0.508134 2.440779 -0.339524
v 0.646732 2.303980 -0.432132
v 0.760476 2.137290 -0.508134
v 0.844995 1.947114 -0.564608
v 0.897042 1.740762 -0.599384
v 1.101414 1.429340 -0.735941
v 0.198264 2.605026 -0.082124
v 0.388909 2.542429 -0.161091
v 0.564608 2.440779 -0.233868
v 0.718610 2.303980 -0.297658
v 0.844995 2.137290 -0.350008
v 0.938909 1.947114 -0.388909
v 0.996740 1.740762 -0.412863
v 1.223825 1.429340 -0.506925
v 0.210476 2.605026 -0.041866
v 0.412863 2.542429 -0.082124
v 0.599385 2.440779 -0.119225
v 0.762872 2.303980 -0.151745
v 0.897042 2.137290 -0.178433
v 0.996740 1.947114 -0.198264
v 1.058134 1.740762 -0.210476
v 1.299206 1.429340 -0.258428
v 0.214599 2.605026 0.000000
v 0.420952 2.542429 0.000000
v 0.611127 2.440779 0.000000
v 0.777817 2.303980 -0.000000
v 0.914616 2.137290 0.000000
v 1.016267 1.947114 -0.000000
v 1.078864 1.740762 0.000000
v 1.324659 1.429340 0.000000
v 0.210476 2.605026 0.041866
v 0.412863 2.542429 0.082124
v 0.599384 2.440779 0.119225
v 0.762872 2.303980 0.151745
v 0.897042 2.137290 0.178433
v 0.996740 1.947114 0.198264
v 1.058134 1.740762 0.210476
v 1.299205 1.429340 0.258428
v 0.198264 2.605026 0.082124
v 0.388909 2.542429 0.161091
v 0.564608 2.440779 0.233868
v 0.718610 2.303980 0.297658
v 0.844995 2.137290 0.350009
v 0.938909 1.947114 0.388909
v 0.996740 1.740762 0.412863
v 1.223825 1.429340 0.506925
v 0.178433 2.605026 0.119225
v 0.350009 2.542429 0.233868
v 0.508155 2.441503 0.340093
v 0.646731 2.303980 0.432132
v 0.760476 2.137290 0.508134
v 0.844995 1.947114 0.564608
v 0.897042 1.740762 0.599385
v 1.101413 1.429340 0.735941
v 0.151745 2.605026 0.151745
v 0.297658 2.542429 0.297658
v 0.386314 2.356234 0.425125
v 0.516978 2.251100 0.544085
v 0.646731 2.137290 0.646731
v 0.718610 1.947114 0.718609
v 0.762872 1.740762 0.762872
v 0.936675 1.429340 0.936675
v 0.119225 2.605026 0.178433
v 0.254712 2.509998 0.348898
v 0.133540 2.296031 0.593086
v 0.164165 2.283851 0.603732
v 0.503337 2.137946 0.759532
v 0.564608 1.947114 0.844995
v 0.599384 1.740762 0.897042
v 0.735940 1.429340 1.101413
v 0.082124 2.605026 0.198264
v 0.176042 2.267797 0.553837
v 0.097274 2.300827 0.575370
v 0.062337 2.315021 0.574040
v 0.324776 2.132036 0.829008
v 0.388909 1.947114 0.938909
v 0.412863 1.740762 0.996740
v 0.506924 1.429340 1.223825
v 0.041866 2.605026 0.210476
v 0.174755 2.277476 0.595953
v 0.055737 2.318434 0.576649
v 0.018490 2.330256 0.593056
v 0.149801 2.144007 0.858161
v 0.198264 1.947114 0.996740
v 0.210476 1.740762 1.058133
v 0.258428 1.429340 1.299205
v -0.000000 2.605026 0.214599
v 0.154836 2.285287 0.588248
v 0.020402 2.329655 0.594290
v -0.033576 2.329319 0.611707
v 0.053961 2.317265 0.586460
v 0.000000 1.947114 1.016267
v -0.000000 1.740762 1.078864
v -0.000000 1.429340 1.324658
v -0.041866 2.605026 0.210476
v 0.092228 2.304999 0.545365
v -0.000572 2.331492 0.601151
v -0.031414 2.329997 0.609551
v -0.079444 2.272449 0.692016
v -0.198264 1.947114 0.996740
v -0.210476 1.740762 1.058133
v -0.258428 1.429340 1.299205
v -0.082124 2.605026 0.198264
v -0.168169 2.542341 0.401218
v -0.051103 2.332673 0.601057
v -0.085529 2.332370 0.622804
v -0.344645 2.141021 0.848397
v -0.388909 1.947114 0.938908
v -0.412863 1.740762 0.996740
v -0.506925 1.429340 1.223824
v -0.119225 2.605026 0.178433
v -0.233868 2.542429 0.350008
v -0.271196 2.420604 0.527778
v -0.420971 2.307805 0.652645
v -0.508134 2.137290 0.760476
v -0.564608 1.947114 0.844995
v -0.599385 1.740762 0.897042
v -0.735941 1.429340 1.101413
v -0.151745 2.605026 0.151745
v -0.297658 2.542429 0.297658
v -0.432132 2.440779 0.432132
v -0.550000 2.303980 0.550000
v -0.646731 2.137290 0.646731
v -0.718609 1.947114 0.718609
v -0.762872 1.740762 0.762872
v -0.936675 1.429340 0.936674
v -0.178433 2.605026 0.119225
v -0.350009 2.542429 0.233868
v -0.508133 2.440779 0.339524
v -0.646731 2.303980 0.432132
v -0.760476 2.137290 0.508133
v -0.844995 1.947114 0.564608
v -0.897042 1.740762 0.599384
v -1.101413 1.429340 0.735940
v -0.198264 2.605026 0.082124
v -0.388909 2.542429 0.161091
v -0.564608 2.440779 0.233868
v -0.718609 2.303980 0.297658
v -0.844995 2.137290 0.350008
v -0.938908 1.947114 0.388909
v -0.996740 1.740762 0.412863
v -1.223825 1.429340 0.506924
v -0.210476 2.605026 0.041866
v -0.412863 2.542429 0.082124
v -0.599384 2.440779 0.119225
v -0.762872 2.303980 0.151745
v -0.897042 2.137290 0.178433
v -0.996740 1.947114 0.198264
v -1.058133 1.740762 0.210476
v -1.299205 1.429340 0.258427
v -0.214599 2.605026 -0.000000
v -0.420952 2.542429 -0.000000
v -0.611127 2.440779 -0.000000
v -0.777817 2.303980 -0.000000
v -0.914616 2.137290 -0.000000
v -1.016267 1.947114 -0.000000
v -1.078863 1.740762 -0.000000
v -1.324658 1.429340 -0.000001
v -0.210476 2.605026 -0.041866
v -0.412863 2.542429 -0.082124
v -0.599384 2.440779 -0.119225
v -0.762872 2.303980 -0.151745
v -0.897042 2.137290 -0.178433
v -0.996740 1.947114 -0.198264
v -1.058133 1.740762 -0.210476
v -1.299205 1.429340 -0.258428
v -0.198264 2.605026 -0.082124
v -0.388909 2.542429 -0.161091
v -0.564607 2.440779 -0.233868
v -0.718609 2.303980 -0.297658
v -0.844995 2.137290 -0.350009
v -0.938908 1.947114 -0.388909
v -0.996740 1.740762 -0.412863
v -1.223824 1.429340 -0.506925
v -0.178433 2.605026 -0.119225
v -0.350008 2.542429 -0.233868
v -0.508133 2.440779 -0.339524
v -0.646731 2.303980 -0.432132
v -0.760475 2.137290 -0.508134
v -0.844995 1.947114 -0.564608
v -0.897042 1.740762 -0.599385
v -1.101412 1.429340 -0.735941
v -0.151744 2.605026 -0.151745
v -0.297658 2.542429 -0.297658
v -0.432132 2.440779 -0.432132
v -0.550000 2.303980 -0.550000
v -0.646731 2.137290 -0.646731
v -0.718609 1.947114 -0.718609
v -0.762871 1.740762 -0.762872
v -0.936674 1.429340 -0.936675
v -0.119225 2.605026 -0.178433
v -0.233868 2.542429 -0.350008
v -0.339524 2.440779 -0.508133
v -0.432132 2.303980 -0.646731
v -0.508133 2.137290 -0.760476
v -0.564608 1.947114 -0.844995
v -0.599384 1.740762 -0.897042
v -0.735940 1.429340 -1.101413
v -0.082124 2.605026 -0.198264
v -0.161091 2.542429 -0.388909
v -0.233868 2.440779 -0.564607
v -0.297658 2.303980 -0.718609
v -0.350008 2.137290 -0.844995
v -0.388909 1.947114 -0.938908
v -0.412863 1.740762 -0.996740
v -0.506924 1.429340 -1.223824
v -0.041866 2.605026 -0.210476
v -0.082124 2.542429 -0.412863
v -0.119225 2.440779 -0.599384
v -0.151745 2.303980 -0.762872
v -0.178432 2.137290 -0.897042
v -0.198264 1.947114 -0.996740
v -0.210475 1.740762 -1.058133
v -0.258427 1.429340 -1.299205
v 0.000000 2.605026 -0.214599
v 0.000000 2.542429 -0.420952
v 0.000000 2.303980 -0.777817
v 0.000000 1.947114 -1.016267
v 0.000000 1.564002 -1.089432
v 0.212538 1.564002 -1.068499
v 0.416908 1.564002 -1.006504
v 0.605256 1.564002 -0.905829
v 0.770345 1.564002 -0.770345
v 0.905829 1.564002 -0.605256
v 1.006504 1.564002 -0.416907
v 1.068499 1.564002 -0.212537
v 1.089432 1.564002 0.000000
v 1.068498 1.564002 0.212538
v 1.006503 1.564002 0.416908
v 0.905829 1.564002 0.605256
v 0.770344 1.564002 0.770345
v 0.605256 1.564002 0.905829
v 0.416907 1.564002 1.006503
v 0.212537 1.564002 1.068498
v -0.000000 1.564002 1.089431
v -0.212538 1.564002 1.068498
v -0.416908 1.564002 1.006503
v -0.605256 1.564002 0.905829
v -0.770344 1.564002 0.770344
v -0.905829 1.564002 0.605255
v -1.006503 1.564002 0.416907
v -1.068498 1.564002 0.212537
v -1.089431 1.564002 -0.000000
v -1.068498 1.564002 -0.212538
v -1.006503 1.564002 -0.416908
v -0.905829 1.564002 -0.605256
v -0.770344 1.564002 -0.770344
v -0.605255 1.564002 -0.905829
v -0.416907 1.564002 -1.006503
v -0.212537 1.564002 -1.068498
v -0.000000 1.474677 -1.138693
v 0.222148 1.474677 -1.116814
v 0.435759 1.474677 -1.052015
v 0.632624 1.474677 -0.946789
v 0.805178 1.474677 -0.805178
v 0.946789 1.474677 -0.632624
v 1.052015 1.474677 -0.435759
v 1.116813 1.474677 -0.222148
v 1.138693 1.474677 0.000000
v 1.116813 1.474677 0.222148
v 1.052015 1.474677 0.435759
v 0.946788 1.474677 0.632624
v 0.805177 1.474677 0.805178
v 0.632624 1.474677 0.946789
v 0.435759 1.474677 1.052015
v 0.222148 1.474677 1.116813
v -0.000000 1.474677 1.138693
v -0.222148 1.474677 1.116813
v -0.435759 1.474677 1.052015
v -0.632624 1.474677 0.946788
v -0.805177 1.474677 0.805177
v -0.946788 1.474677 0.632623
v -1.052015 1.474677 0.435758
v -1.116813 1.474677 0.222147
v -1.138692 1.474677 -0.000000
v -1.116812 1.474677 -0.222148
v -1.052014 1.474677 -0.435759
v -0.946788 1.474677 -0.632624
v -0.805177 1.474677 -0.805177
v -0.632623 1.474677 -0.946788
v -0.435758 1.474677 -1.052014
v -0.222147 1.474677 -1.116812
vn -0.0000 1.0000 -0.0000
vn -0.0000 0.8286 -0.5598
vn -0.0000 0.5528 -0.8333
vn -0.0000 0.1749 -0.9846
vn -0.0000 -0.1125 -0.9937
vn 0.0392 0.9796 -0.1971
vn 0.0757 0.9217 -0.3804
vn 0.1092 0.8286 -0.5490
vn 0.1385 0.7041 -0.6965
vn 0.1626 0.5528 -0.8173
vn 0.1804 0.3805 -0.9070
vn 0.1921 0.1749 -0.9657
vn 0.1939 -0.1125 -0.9746
vn 0.0769 0.9796 -0.1857
vn 0.1484 0.9217 -0.3584
vn 0.2142 0.8286 -0.5172
vn 0.2718 0.7041 -0.6561
vn 0.3189 0.5528 -0.7699
vn 0.3539 0.3805 -0.8544
vn 0.3768 0.1749 -0.9096
vn 0.3803 -0.1125 -0.9180
vn 0.1117 0.9796 -0.1671
vn 0.2155 0.9217 -0.3225
vn 0.3110 0.8286 -0.4654
vn 0.3945 0.7041 -0.5905
vn 0.4630 0.5528 -0.6929
vn 0.5138 0.3805 -0.7689
vn 0.5470 0.1749 -0.8186
vn 0.5520 -0.1125 -0.8262
vn 0.1421 0.9796 -0.1421
vn 0.2743 0.9217 -0.2743
vn 0.3958 0.8286 -0.3958
vn 0.5021 0.7041 -0.5021
vn 0.5893 0.5528 -0.5893
vn 0.6539 0.3805 -0.6539
vn 0.6962 0.1749 -0.6962
vn 0.7026 -0.1125 -0.7026
vn 0.1671 0.9796 -0.1117
vn 0.3225 0.9217 -0.2155
vn 0.4654 0.8286 -0.3110
vn 0.5905 0.7041 -0.3945
vn 0.6929 0.5528 -0.4630
vn 0.7689 0.3805 -0.5138
vn 0.8186 0.1749 -0.5470
vn 0.8262 -0.1125 -0.5520
vn 0.1857 0.9796 -0.0769
vn 0.3584 0.9217 -0.1484
vn 0.5172 0.8286 -0.2142
vn 0.6561 0.7041 -0.2718
vn 0.7699 0.5528 -0.3189
vn 0.8544 0.3805 -0.3539
vn 0.9096 0.1749 -0.3768
vn 0.9180 -0.1125 -0.3803
vn 0.1971 0.9796 -0.0392
vn 0.3804 0.9217 -0.0757
vn 0.5490 0.8286 -0.1092
vn 0.6965 0.7041 -0.1385
vn 0.8173 0.5528 -0.1626
vn 0.9070 0.3805 -0.1804
vn 0.9657 0.1749 -0.1921
vn 0.9746 -0.1125 -0.1939
vn 0.2010 0.9796 -0.0000
vn 0.3879 0.9217 -0.0000
vn 0.5598 0.8286 -0.0000
vn 0.7101 0.7041 -0.0000
vn 0.8333 0.5528 -0.0000
vn 0.9248 0.3805 -0.0000
vn 0.9846 0.1749 -0.0000
vn 0.9937 -0.1125 -0.0000
vn 0.1971 0.9796 0.0392
vn 0.3804 0.9217 0.0757
vn 0.5490 0.8286 0.1092
vn 0.6965 0.7041 0.1385
vn 0.8173 0.5528 0.1626
vn 0.9070 0.3805 0.1804
vn 0.9657 0.1749 0.1921
vn 0.9746 -0.1125 0.1939
vn 0.1857 0.9796 0.0769
vn 0.3584 0.9219 0.1473
vn 0.5179 0.8285 0.2128
vn 0.6566 0.7037 0.2713
vn 0.7699 0.5528 0.3189
vn 0.8544 0.3805 0.3539
vn 0.9096 0.1749 0.3768
vn 0.9180 -0.1125 0.3803
vn 0.1671 0.9796 0.1117
vn 0.2894 0.9027 0.3184
vn 0.3485 0.8056 0.4791
vn 0.4662 0.7362 0.4905
vn 0.6557 0.5795 0.4841
vn 0.7689 0.3805 0.5138
vn 0.8186 0.1749 0.5470
vn 0.8262 -0.1125 0.5520
vn 0.1044 0.9753 0.1948
vn 0.1915 0.8456 0.4982
vn 0.2100 0.7311 0.6492
vn 0.2419 0.7949 0.5564
vn 0.4930 0.6403 0.5891
vn 0.6521 0.3822 0.6547
vn 0.6962 0.1749 0.6962
vn 0.7026 -0.1125 0.7026
vn -0.0184 0.9382 0.3455
vn 0.0703 0.7517 0.6558
vn 0.0247 0.9985 -0.0484
vn 0.1640 0.8523 0.4967
vn 0.3429 0.6949 0.6320
vn 0.4977 0.3959 0.7717
vn 0.5470 0.1749 0.8186
vn 0.5520 -0.1125 0.8262
vn 0.1397 0.9220 0.3611
vn -0.5673 0.5946 0.5697
vn -0.9392 -0.3409 0.0419
vn 0.0643 0.1298 0.9895
vn 0.2292 0.7178 0.6575
vn 0.3292 0.4206 0.8454
vn 0.3768 0.1749 0.9096
vn 0.3803 -0.1125 0.9180
vn 0.2030 0.9166 0.3445
vn 0.0785 -0.2454 0.9662
vn -0.2435 -0.9012 0.3585
vn -0.2797 -0.9488 -0.1470
vn 0.0232 0.7419 0.6701
vn 0.1103 0.4733 0.8739
vn 0.1921 0.1749 0.9657
vn 0.1939 -0.1125 0.9746
vn -0.0446 0.9060 0.4210
vn -0.3187 0.1343 0.9383
vn 0.1873 -0.5417 -0.8194
vn 0.2590 0.4476 0.8559
vn -0.6160 -0.2421 0.7496
vn -0.0209 0.5096 0.8602
vn -0.0000 0.1749 0.9846
vn -0.0000 -0.1125 0.9937
vn 0.0823 0.9264 0.3675
vn 0.1248 0.8951 0.4280
vn 0.3186 0.6130 0.7230
vn 0.1644 0.7750 0.6102
vn 0.0705 0.7228 0.6874
vn -0.0805 0.4818 0.8726
vn -0.1921 0.1749 0.9657
vn -0.1939 -0.1125 0.9746
vn 0.0379 0.9683 0.2470
vn 0.0800 0.8441 0.5301
vn 0.1398 0.8915 0.4310
vn 0.0210 0.7772 0.6289
vn -0.1512 0.6278 0.7635
vn -0.3000 0.4197 0.8566
vn -0.3768 0.1749 0.9096
vn -0.3803 -0.1125 0.9180
vn -0.1179 0.9799 0.1610
vn -0.1750 0.9005 0.3980
vn -0.1195 0.7958 0.5937
vn -0.2518 0.7487 0.6132
vn -0.4151 0.5823 0.6990
vn -0.5151 0.3794 0.7686
vn -0.5470 0.1749 0.8186
vn -0.5520 -0.1125 0.8262
vn -0.1421 0.9796 0.1421
vn -0.2587 0.9166 0.3048
vn -0.3549 0.8322 0.4260
vn -0.4802 0.7155 0.5075
vn -0.5896 0.5525 0.5891
vn -0.6539 0.3805 0.6539
vn -0.6962 0.1749 0.6962
vn -0.7026 -0.1125 0.7026
vn -0.1671 0.9796 0.1117
vn -0.3225 0.9217 0.2155
vn -0.4654 0.8286 0.3110
vn -0.5905 0.7041 0.3945
vn -0.6929 0.5528 0.4630
vn -0.7689 0.3805 0.5138
vn -0.8186 0.1749 0.5470
vn -0.8262 -0.1125 0.5520
vn -0.1857 0.9796 0.0769
vn -0.3584 0.9217 0.1484
vn -0.5172 0.8286 0.2142
vn -0.6561 0.7041 0.2718
vn -0.7699 0.5528 0.3189
vn -0.8544 0.3805 0.3539
vn -0.9096 0.1749 0.3768
vn -0.9180 -0.1125 0.3803
vn -0.1971 0.9796 0.0392
vn -0.3804 0.9217 0.0757
vn -0.5490 0.8286 0.1092
vn -0.6965 0.7041 0.1385
vn -0.8173 0.5528 0.1626
vn -0.9070 0.3805 0.1804
vn -0.9657 0.1749 0.1921
vn -0.9746 -0.1125 0.1939
vn -0.2010 0.9796 -0.0000
vn -0.3879 0.9217 -0.0000
vn -0.5598 0.8286 -0.0000
vn -0.7101 0.7041 -0.0000
vn -0.8333 0.5528 -0.0000
vn -0.9248 0.3805 -0.0000
vn -0.9846 0.1749 -0.0000
vn -0.9937 -0.1125 -0.0000
vn -0.1971 0.9796 -0.0392
vn -0.3804 0.9217 -0.0757
vn -0.5490 0.8286 -0.1092
vn -0.6965 0.7041 -0.1385
vn -0.8173 0.5528 -0.1626
vn -0.9070 0.3805 -0.1804
vn -0.9657 0.1749 -0.1921
vn -0.9746 -0.1125 -0.1939
vn -0.1857 0.9796 -0.0769
vn -0.3584 0.9217 -0.1484
vn -0.5172 0.8286 -0.2142
vn -0.6561 0.7041 -0.2718
vn -0.7699 0.5528 -0.3189
vn -0.8544 0.3805 -0.3539
vn -0.9096 0.1749 -0.3768
vn -0.9180 -0.1125 -0.3803
vn -0.1671 0.9796 -0.1117
vn -0.3225 0.9217 -0.2155
vn -0.4654 0.8286 -0.3110
vn -0.5905 0.7041 -0.3945
vn -0.6929 0.5528 -0.4630
vn -0.7689 0.3805 -0.5138
vn -0.8186 0.1749 -0.5470
vn -0.8262 -0.1125 -0.5520
vn -0.1421 0.9796 -0.1421
vn -0.2743 0.9217 -0.2743
vn -0.3958 0.8286 -0.3958
vn -0.5021 0.7041 -0.5021
vn -0.5893 0.5528 -0.5893
vn -0.6539 0.3805 -0.6539
vn -0.6962 0.1749 -0.6962
vn -0.7026 -0.1125 -0.7026
vn -0.1117 0.9796 -0.1671
vn -0.2155 0.9217 -0.3225
vn -0.3110 0.8286 -0.4654
vn -0.3945 0.7041 -0.5905
vn -0.4630 0.5528 -0.6929
vn -0.5138 0.3805 -0.7689
vn -0.5470 0.1749 -0.8186
vn -0.5520 -0.1125 -0.8262
vn -0.0769 0.9796 -0.1857
vn -0.1484 0.9217 -0.3584
vn -0.2142 0.8286 -0.5172
vn -0.2718 0.7041 -0.6561
vn -0.3189 0.5528 -0.7699
vn -0.3539 0.3805 -0.8544
vn -0.3768 0.1749 -0.9096
vn -0.3803 -0.1125 -0.9180
vn -0.0392 0.9796 -0.1971
vn -0.0757 0.9217 -0.3804
vn -0.1092 0.8286 -0.5490
vn -0.1385 0.7041 -0.6965
vn -0.1626 0.5528 -0.8173
vn -0.1804 0.3805 -0.9070
vn -0.1921 0.1749 -0.9657
vn -0.1939 -0.1125 -0.9746
vn -0.0000 0.9796 -0.2010
vn -0.0000 0.9217 -0.3879
vn -0.0000 0.7041 -0.7101
vn -0.0000 0.3805 -0.9248
vn -0.0000 0.2819 -0.9595
vn 0.1872 0.2819 -0.9410
vn 0.3672 0.2819 -0.8864
vn 0.5330 0.2819 -0.7978
vn 0.6784 0.2819 -0.6784
vn 0.7978 0.2819 -0.5330
vn 0.8864 0.2819 -0.3672
vn 0.9410 0.2819 -0.1872
vn 0.9595 0.2819 -0.0000
vn 0.9410 0.2819 0.1872
vn 0.8864 0.2819 0.3672
vn 0.7978 0.2819 0.5330
vn 0.6784 0.2819 0.6784
vn 0.5330 0.2819 0.7978
vn 0.3672 0.2819 0.8864
vn 0.1872 0.2819 0.9410
vn -0.0000 0.2819 0.9595
vn -0.1872 0.2819 0.9410
vn -0.3672 0.2819 0.8864
vn -0.5330 0.2819 0.7978
vn -0.6784 0.2819 0.6784
vn -0.7978 0.2819 0.5330
vn -0.8864 0.2819 0.3672
vn -0.9410 0.2819 0.1872
vn -0.9595 0.2819 -0.0000
vn -0.9410 0.2819 -0.1872
vn -0.8864 0.2819 -0.3672
vn -0.7978 0.2819 -0.5330
vn -0.6784 0.2819 -0.6784
vn -0.5330 0.2819 -0.7978
vn -0.3672 0.2819 -0.8864
vn -0.1872 0.2819 -0.9410
vn -0.0000 0.8065 -0.5912
vn 0.1153 0.8065 -0.5799
vn 0.2263 0.8065 -0.5462
vn 0.3285 0.8065 -0.4916
vn 0.4181 0.8065 -0.4181
vn 0.4916 0.8065 -0.3285
vn 0.5462 0.8065 -0.2263
vn 0.5799 0.8065 -0.1153
vn 0.5912 0.8065 -0.0000
vn 0.5799 0.8065 0.1153
vn 0.5462 0.8065 0.2263
vn 0.4916 0.8065 0.3285
vn 0.4181 0.8065 0.4181
vn 0.3285 0.8065 0.4916
vn 0.2263 0.8065 0.5462
vn 0.1153 0.8065 0.5799
vn -0.0000 0.8065 0.5912
vn -0.1153 0.8065 0.5799
vn -0.2263 0.8065 0.5462
vn -0.3285 0.8065 0.4916
vn -0.4181 0.8065 0.4181
vn -0.4916 0.8065 0.3285
vn -0.5462 0.8065 0.2263
vn -0.5799 0.8065 0.1153
vn -0.5912 0.8065 -0.0000
vn -0.5799 0.8065 -0.1153
vn -0.5462 0.8065 -0.2263
vn -0.4916 0.8065 -0.3285
vn -0.4181 0.8065 -0.4181
vn -0.3285 0.8065 -0.4916
vn -0.2263 0.8065 -0.5462
vn -0.1153 0.8065 -0.5799
vt 0.750000 0.531250
vt 0.750000 0.562500
vt 0.718750 0.562500
vt 0.718750 0.531250
vt 0.750000 0.937500
vt 0.734375 1.000000
vt 0.718750 0.937500
vt 0.750000 0.875000
vt 0.718750 0.875000
vt 0.750000 0.812500
vt 0.718750 0.812500
vt 0.750000 0.750000
vt 0.718750 0.750000
vt 0.750000 0.687500
vt 0.718750 0.687500
vt 0.750000 0.625000
vt 0.718750 0.625000
vt 0.687500 0.625000
vt 0.687500 0.562500
vt 0.687500 0.531250
vt 0.703125 1.000000
vt 0.687500 0.937500
vt 0.687500 0.875000
vt 0.687500 0.812500
vt 0.687500 0.750000
vt 0.687500 0.687500
vt 0.656250 0.875000
vt 0.656250 0.812500
vt 0.656250 0.750000
vt 0.656250 0.687500
vt 0.656250 0.625000
vt 0.656250 0.562500
vt 0.656250 0.531250
vt 0.671875 1.000000
vt 0.656250 0.937500
vt 0.625000 0.625000
vt 0.625000 0.562500
vt 0.625000 0.531250
vt 0.640625 1.000000
vt 0.625000 0.937500
vt 0.625000 0.875000
vt 0.625000 0.812500
vt 0.625000 0.750000
vt 0.625000 0.687500
vt 0.593750 0.812500
vt 0.593750 0.750000
vt 0.593750 0.687500
vt 0.593750 0.625000
vt 0.593750 0.562500
vt 0.593750 0.531250
vt 0.609375 1.000000
vt 0.593750 0.937500
vt 0.593750 0.875000
vt 0.562500 0.562500
vt 0.562500 0.531250
vt 0.578125 1.000000
vt 0.562500 0.937500
vt 0.562500 0.875000
vt 0.562500 0.812500
vt 0.562500 0.750000
vt 0.562500 0.687500
vt 0.562500 0.625000
vt 0.531250 0.812500
vt 0.531250 0.750000
vt 0.531250 0.687500
vt 0.531250 0.625000
vt 0.531250 0.562500
vt 0.531250 0.531250
vt 0.546875 1.000000
vt 0.531250 0.937500
vt 0.531250 0.875000
vt 0.500000 0.562500
vt 0.500000 0.531250
vt 0.515625 1.000000
vt 0.500000 0.937500
vt 0.500000 0.875000
vt 0.500000 0.812500
vt 0.500000 0.750000
vt 0.500000 0.687500
vt 0.500000 0.625000
vt 0.468750 0.750000
vt 0.468750 0.687500
vt 0.468750 0.625000
vt 0.468750 0.562500
vt 0.468750 0.531250
vt 0.484375 1.000000
vt 0.468750 0.937500
vt 0.468750 0.875000
vt 0.468750 0.812500
vt 0.437500 0.937500
vt 0.437500 0.875000
vt 0.437500 0.812500
vt 0.437500 0.750000
vt 0.437500 0.687500
vt 0.437500 0.625000
vt 0.437500 0.562500
vt 0.437500 0.531250
vt 0.453125 1.000000
vt 0.406250 0.687500
vt 0.406250 0.625000
vt 0.406250 0.562500
vt 0.406250 0.531250
vt 0.421875 1.000000
vt 0.406250 0.937500
vt 0.406250 0.875000
vt 0.406250 0.812500
vt 0.406250 0.750000
vt 0.375000 0.937500
vt 0.375000 0.875000
vt 0.375000 0.812500
vt 0.375000 0.750000
vt 0.375000 0.687500
vt 0.375000 0.625000
vt 0.375000 0.562500
vt 0.375000 0.531250
vt 0.390625 1.000000
vt 0.343750 0.687500
vt 0.343750 0.625000
vt 0.343750 0.562500
vt 0.343750 0.531250
vt 0.359375 1.000000
vt 0.343750 0.937500
vt 0.343750 0.875000
vt 0.343750 0.812500
vt 0.343750 0.750000
vt 0.312500 0.875000
vt 0.312500 0.812500
vt 0.312500 0.750000
vt 0.312500 0.687500
vt 0.312500 0.625000
vt 0.312500 0.562500
vt 0.312500 0.531250
vt 0.328125 1.000000
vt 0.312500 0.937500
vt 0.281250 0.625000
vt 0.281250 0.562500
vt 0.281250 0.531250
vt 0.296875 1.000000
vt 0.281250 0.937500
vt 0.281250 0.875000
vt 0.281250 0.812500
vt 0.281250 0.750000
vt 0.281250 0.687500
vt 0.250000 0.875000
vt 0.250000 0.812500
vt 0.250000 0.750000
vt 0.250000 0.687500
vt 0.250000 0.625000
vt 0.250000 0.562500
vt 0.250000 0.531250
vt 0.265625 1.000000
vt 0.250000 0.937500
vt 0.218750 0.625000
vt 0.218750 0.562500
vt 0.218750 0.531250
vt 0.234375 1.000000
vt 0.218750 0.937500
vt 0.218750 0.875000
vt 0.218750 0.812500
vt 0.218750 0.750000
vt 0.218750 0.687500
vt 0.187500 0.812500
vt 0.187500 0.750000
vt 0.187500 0.687500
vt 0.187500 0.625000
vt 0.187500 0.562500
vt 0.187500 0.531250
vt 0.203125 1.000000
vt 0.187500 0.937500
vt 0.187500 0.875000
vt 0.156250 0.562500
vt 0.156250 0.531250
vt 0.171875 1.000000
vt 0.156250 0.937500
vt 0.156250 0.875000
vt 0.156250 0.812500
vt 0.156250 0.750000
vt 0.156250 0.687500
vt 0.156250 0.625000
vt 0.125000 0.750000
vt 0.125000 0.687500
vt 0.125000 0.625000
vt 0.125000 0.562500
vt 0.125000 0.531250
vt 0.140625 1.000000
vt 0.125000 0.937500
vt 0.125000 0.875000
vt 0.125000 0.812500
vt 0.109375 1.000000
vt 0.093750 0.937500
vt 0.093750 0.875000
vt 0.093750 0.812500
vt 0.093750 0.750000
vt 0.093750 0.687500
vt 0.093750 0.625000
vt 0.093750 0.562500
vt 0.093750 0.531250
vt 0.062500 0.750000
vt 0.062500 0.687500
vt 0.062500 0.625000
vt 0.062500 0.562500
vt 0.062500 0.531250
vt 0.078125 1.000000
vt 0.062500 0.937500
vt 0.062500 0.875000
vt 0.062500 0.812500
vt 0.031250 0.937500
vt 0.031250 0.875000
vt 0.031250 0.812500
vt 0.031250 0.750000
vt 0.031250 0.687500
vt 0.031250 0.625000
vt 0.031250 0.562500
vt 0.031250 0.531250
vt 0.046875 1.000000
vt 0.000000 0.687500
vt 0.000000 0.625000
vt 0.000000 0.562500
vt 0.000000 0.531250
vt 0.015625 1.000000
vt 0.000000 0.937500
vt 0.000000 0.875000
vt 0.000000 0.812500
vt 0.000000 0.750000
vt 1.000000 0.875000
vt 1.000000 0.937500
vt 0.968750 0.937500
vt 0.968750 0.875000
vt 1.000000 0.812500
vt 0.968750 0.812500
vt 1.000000 0.750000
vt 0.968750 0.750000
vt 1.000000 0.687500
vt 0.968750 0.687500
vt 1.000000 0.625000
vt 0.968750 0.625000
vt 1.000000 0.562500
vt 0.968750 0.562500
vt 1.000000 0.531250
vt 0.968750 0.531250
vt 0.984375 1.000000
vt 0.937500 0.687500
vt 0.937500 0.625000
vt 0.937500 0.562500
vt 0.937500 0.531250
vt 0.953125 1.000000
vt 0.937500 0.937500
vt 0.937500 0.875000
vt 0.937500 0.812500
vt 0.937500 0.750000
vt 0.906250 0.875000
vt 0.906250 0.812500
vt 0.906250 0.750000
vt 0.906250 0.687500
vt 0.906250 0.625000
vt 0.906250 0.562500
vt 0.906250 0.531250
vt 0.921875 1.000000
vt 0.906250 0.937500
vt 0.875000 0.625000
vt 0.875000 0.562500
vt 0.875000 0.531250
vt 0.890625 1.000000
vt 0.875000 0.937500
vt 0.875000 0.875000
vt 0.875000 0.812500
vt 0.875000 0.750000
vt 0.875000 0.687500
vt 0.843750 0.812500
vt 0.843750 0.750000
vt 0.843750 0.687500
vt 0.843750 0.625000
vt 0.843750 0.562500
vt 0.843750 0.531250
vt 0.859375 1.000000
vt 0.843750 0.937500
vt 0.843750 0.875000
vt 0.812500 0.562500
vt 0.812500 0.531250
vt 0.828125 1.000000
vt 0.812500 0.937500
vt 0.812500 0.875000
vt 0.812500 0.812500
vt 0.812500 0.750000
vt 0.812500 0.687500
vt 0.812500 0.625000
vt 0.781250 0.812500
vt 0.781250 0.750000
vt 0.781250 0.687500
vt 0.781250 0.625000
vt 0.781250 0.562500
vt 0.781250 0.531250
vt 0.796875 1.000000
vt 0.781250 0.937500
vt 0.781250 0.875000
vt 0.765625 1.000000
vt 0.750000 0.500000
vt 0.718750 0.500000
vt 0.687500 0.500000
vt 0.656250 0.500000
vt 0.625000 0.500000
vt 0.593750 0.500000
vt 0.562500 0.500000
vt 0.531250 0.500000
vt 0.500000 0.500000
vt 0.468750 0.500000
vt 0.437500 0.500000
vt 0.406250 0.500000
vt 0.375000 0.500000
vt 0.343750 0.500000
vt 0.312500 0.500000
vt 0.281250 0.500000
vt 0.250000 0.500000
vt 0.218750 0.500000
vt 0.187500 0.500000
vt 0.156250 0.500000
vt 0.125000 0.500000
vt 0.093750 0.500000
vt 0.062500 0.500000
vt 0.031250 0.500000
vt 1.000000 0.500000
vt 0.968750 0.500000
vt 0.937500 0.500000
vt 0.906250 0.500000
vt 0.875000 0.500000
vt 0.843750 0.500000
vt 0.812500 0.500000
vt 0.781250 0.500000
vt 0.781250 0.515625
vt 0.750000 0.515625
vt 0.812500 0.515625
vt 0.843750 0.515625
vt 0.875000 0.515625
vt 0.906250 0.515625
vt 0.937500 0.515625
vt 0.968750 0.515625
vt 1.000000 0.515625
vt 0.031250 0.515625
vt 0.000000 0.515625
vt 0.062500 0.515625
vt 0.093750 0.515625
vt 0.125000 0.515625
vt 0.156250 0.515625
vt 0.187500 0.515625
vt 0.218750 0.515625
vt 0.250000 0.515625
vt 0.281250 0.515625
vt 0.312500 0.515625
vt 0.343750 0.515625
vt 0.375000 0.515625
vt 0.406250 0.515625
vt 0.437500 0.515625
vt 0.468750 0.515625
vt 0.500000 0.515625
vt 0.531250 0.515625
vt 0.562500 0.515625
vt 0.593750 0.515625
vt 0.625000 0.515625
vt 0.656250 0.515625
vt 0.687500 0.515625
vt 0.718750 0.515625
vt 0.000000 0.500000
s 1
usemtl Material
f 258/1/258 4/2/4 12/3/12 259/4/259
f 254/5/254 1/6/1 6/7/6
f 255/8/255 254/5/254 6/7/6 7/9/7
f 2/10/2 255/8/255 7/9/7 8/11/8
f 256/12/256 2/10/2 8/11/8 9/13/9
f 3/14/3 256/12/256 9/13/9 10/15/10
f 257/16/257 3/14/3 10/15/10 11/17/11
f 4/2/4 257/16/257 11/17/11 12/3/12
f 12/3/12 11/17/11 19/18/19 20/19/20
f 259/4/259 12/3/12 20/19/20 260/20/260
f 6/7/6 1/21/1 14/22/14
f 7/9/7 6/7/6 14/22/14 15/23/15
f 8/11/8 7/9/7 15/23/15 16/24/16
f 9/13/9 8/11/8 16/24/16 17/25/17
f 10/15/10 9/13/9 17/25/17 18/26/18
f 11/17/11 10/15/10 18/26/18 19/18/19
f 16/24/16 15/23/15 23/27/23 24/28/24
f 17/25/17 16/24/16 24/28/24 25/29/25
f 18/26/18 17/25/17 25/29/25 26/30/26
f 19/18/19 18/26/18 26/30/26 27/31/27
f 20/19/20 19/18/19 27/31/27 28/32/28
f 260/20/260 20/19/20 28/32/28 261/33/261
f 14/22/14 1/34/1 22/35/22
f 15/23/15 14/22/14 22/35/22 23/27/23
f 28/32/28 27/31/27 35/36/35 36/37/36
f 261/33/261 28/32/28 36/37/36 262/38/262
f 22/35/22 1/39/1 30/40/30
f 23/27/23 22/35/22 30/40/30 31/41/31
f 24/28/24 23/27/23 31/41/31 32/42/32
f 25/29/25 24/28/24 32/42/32 33/43/33
f 26/30/26 25/29/25 33/43/33 34/44/34
f 27/31/27 26/30/26 34/44/34 35/36/35
f 33/43/33 32/42/32 40/45/40 41/46/41
f 34/44/34 33/43/33 41/46/41 42/47/42
f 35/36/35 34/44/34 42/47/42 43/48/43
f 36/37/36 35/36/35 43/48/43 44/49/44
f 262/38/262 36/37/36 44/49/44 263/50/263
f 30/40/30 1/51/1 38/52/38
f 31/41/31 30/40/30 38/52/38 39/53/39
f 32/42/32 31/41/31 39/53/39 40/45/40
f 263/50/263 44/49/44 52/54/52 264/55/264
f 38/52/38 1/56/1 46/57/46
f 39/53/39 38/52/38 46/57/46 47/58/47
f 40/45/40 39/53/39 47/58/47 48/59/48
f 41/46/41 40/45/40 48/59/48 49/60/49
f 42/47/42 41/46/41 49/60/49 50/61/50
f 43/48/43 42/47/42 50/61/50 51/62/51
f 44/49/44 43/48/43 51/62/51 52/54/52
f 49/60/49 48/59/48 56/63/56 57/64/57
f 50/61/50 49/60/49 57/64/57 58/65/58
f 51/62/51 50/61/50 58/65/58 59/66/59
f 52/54/52 51/62/51 59/66/59 60/67/60
f 264/55/264 52/54/52 60/67/60 265/68/265
f 46/57/46 1/69/1 54/70/54
f 47/58/47 46/57/46 54/70/54 55/71/55
f 48/59/48 47/58/47 55/71/55 56/63/56
f 265/68/265 60/67/60 68/72/68 266/73/266
f 54/70/54 1/74/1 62/75/62
f 55/71/55 54/70/54 62/75/62 63/76/63
f 56/63/56 55/71/55 63/76/63 64/77/64
f 57/64/57 56/63/56 64/77/64 65/78/65
f 58/65/58 57/64/57 65/78/65 66/79/66
f 59/66/59 58/65/58 66/79/66 67/80/67
f 60/67/60 59/66/59 67/80/67 68/72/68
f 66/79/66 65/78/65 73/81/73 74/82/74
f 67/80/67 66/79/66 74/82/74 75/83/75
f 68/72/68 67/80/67 75/83/75 76/84/76
f 266/73/266 68/72/68 76/84/76 267/85/267
f 62/75/62 1/86/1 70/87/70
f 63/76/63 62/75/62 70/87/70 71/88/71
f 64/77/64 63/76/63 71/88/71 72/89/72
f 65/78/65 64/77/64 72/89/72 73/81/73
f 71/88/71 70/87/70 78/90/78 79/91/79
f 72/89/72 71/88/71 79/91/79 80/92/80
f 73/81/73 72/89/72 80/92/80 81/93/81
f 74/82/74 73/81/73 81/93/81 82/94/82
f 75/83/75 74/82/74 82/94/82 83/95/83
f 76/84/76 75/83/75 83/95/83 84/96/84
f 267/85/267 76/84/76 84/96/84 268/97/268
f 70/87/70 1/98/1 78/90/78
f 83/95/83 82/94/82 90/99/90 91/100/91
f 84/96/84 83/95/83 91/100/91 92/101/92
f 268/97/268 84/96/84 92/101/92 269/102/269
f 78/90/78 1/103/1 86/104/86
f 79/91/79 78/90/78 86/104/86 87/105/87
f 80/92/80 79/91/79 87/105/87 88/106/88
f 81/93/81 80/92/80 88/106/88 89/107/89
f 82/94/82 81/93/81 89/107/89 90/99/90
f 87/105/87 86/104/86 94/108/94 95/109/95
f 88/106/88 87/105/87 95/109/95 96/110/96
f 89/107/89 88/106/88 96/110/96 97/111/97
f 90/99/90 89/107/89 97/111/97 98/112/98
f 91/100/91 90/99/90 98/112/98 99/113/99
f 92/101/92 91/100/91 99/113/99 100/114/100
f 269/102/269 92/101/92 100/114/100 270/115/270
f 86/104/86 1/116/1 94/108/94
f 99/113/99 98/112/98 106/117/106 107/118/107
f 100/114/100 99/113/99 107/118/107 108/119/108
f 270/115/270 100/114/100 108/119/108 271/120/271
f 94/108/94 1/121/1 102/122/102
f 95/109/95 94/108/94 102/122/102 103/123/103
f 96/110/96 95/109/95 103/123/103 104/124/104
f 97/111/97 96/110/96 104/124/104 105/125/105
f 98/112/98 97/111/97 105/125/105 106/117/106
f 104/124/104 103/123/103 111/126/111 112/127/112
f 105/125/105 104/124/104 112/127/112 113/128/113
f 106/117/106 105/125/105 113/128/113 114/129/114
f 107/118/107 106/117/106 114/129/114 115/130/115
f 108/119/108 107/118/107 115/130/115 116/131/116
f 271/120/271 108/119/108 116/131/116 272/132/272
f 102/122/102 1/133/1 110/134/110
f 103/123/103 102/122/102 110/134/110 111/126/111
f 116/131/116 115/130/115 123/135/123 124/136/124
f 272/132/272 116/131/116 124/136/124 273/137/273
f 110/134/110 1/138/1 118/139/118
f 111/126/111 110/134/110 118/139/118 119/140/119
f 112/127/112 111/126/111 119/140/119 120/141/120
f 113/128/113 112/127/112 120/141/120 121/142/121
f 114/129/114 113/128/113 121/142/121 122/143/122
f 115/130/115 114/129/114 122/143/122 123/135/123
f 120/141/120 119/140/119 127/144/127 128/145/128
f 121/142/121 120/141/120 128/145/128 129/146/129
f 122/143/122 121/142/121 129/146/129 130/147/130
f 123/135/123 122/143/122 130/147/130 131/148/131
f 124/136/124 123/135/123 131/148/131 132/149/132
f 273/137/273 124/136/124 132/149/132 274/150/274
f 118/139/118 1/151/1 126/152/126
f 119/140/119 118/139/118 126/152/126 127/144/127
f 132/149/132 131/148/131 139/153/139 140/154/140
f 274/150/274 132/149/132 140/154/140 275/155/275
f 126/152/126 1/156/1 134/157/134
f 127/144/127 126/152/126 134/157/134 135/158/135
f 128/145/128 127/144/127 135/158/135 136/159/136
f 129/146/129 128/145/128 136/159/136 137/160/137
f 130/147/130 129/146/129 137/160/137 138/161/138
f 131/148/131 130/147/130 138/161/138 139/153/139
f 137/160/137 136/159/136 144/162/144 145/163/145
f 138/161/138 137/160/137 145/163/145 146/164/146
f 139/153/139 138/161/138 146/164/146 147/165/147
f 140/154/140 139/153/139 147/165/147 148/166/148
f 275/155/275 140/154/140 148/166/148 276/167/276
f 134/157/134 1/168/1 142/169/142
f 135/158/135 134/157/134 142/169/142 143/170/143
f 136/159/136 135/158/135 143/170/143 144/162/144
f 276/167/276 148/166/148 156/171/156 277/172/277
f 142/169/142 1/173/1 150/174/150
f 143/170/143 142/169/142 150/174/150 151/175/151
f 144/162/144 143/170/143 151/175/151 152/176/152
f 145/163/145 144/162/144 152/176/152 153/177/153
f 146/164/146 145/163/145 153/177/153 154/178/154
f 147/165/147 146/164/146 154/178/154 155/179/155
f 148/166/148 147/165/147 155/179/155 156/171/156
f 154/178/154 153/177/153 161/180/161 162/181/162
f 155/179/155 154/178/154 162/181/162 163/182/163
f 156/171/156 155/179/155 163/182/163 164/183/164
f 277/172/277 156/171/156 164/183/164 278/184/278
f 150/174/150 1/185/1 158/186/158
f 151/175/151 150/174/150 158/186/158 159/187/159
f 152/176/152 151/175/151 159/187/159 160/188/160
f 153/177/153 152/176/152 160/188/160 161/180/161
f 158/186/158 1/189/1 166/190/166
f 159/187/159 158/186/158 166/190/166 167/191/167
f 160/188/160 159/187/159 167/191/167 168/192/168
f 161/180/161 160/188/160 168/192/168 169/193/169
f 162/181/162 161/180/161 169/193/169 170/194/170
f 163/182/163 162/181/162 170/194/170 171/195/171
f 164/183/164 163/182/163 171/195/171 172/196/172
f 278/184/278 164/183/164 172/196/172 279/197/279
f 170/194/170 169/193/169 177/198/177 178/199/178
f 171/195/171 170/194/170 178/199/178 179/200/179
f 172/196/172 171/195/171 179/200/179 180/201/180
f 279/197/279 172/196/172 180/201/180 280/202/280
f 166/190/166 1/203/1 174/204/174
f 167/191/167 166/190/166 174/204/174 175/205/175
f 168/192/168 167/191/167 175/205/175 176/206/176
f 169/193/169 168/192/168 176/206/176 177/198/177
f 175/205/175 174/204/174 182/207/182 183/208/183
f 176/206/176 175/205/175 183/208/183 184/209/184
f 177/198/177 176/206/176 184/209/184 185/210/185
f 178/199/178 177/198/177 185/210/185 186/211/186
f 179/200/179 178/199/178 186/211/186 187/212/187
f 180/201/180 179/200/179 187/212/187 188/213/188
f 280/202/280 180/201/180 188/213/188 281/214/281
f 174/204/174 1/215/1 182/207/182
f 187/212/187 186/211/186 194/216/194 195/217/195
f 188/213/188 187/212/187 195/217/195 196/218/196
f 281/214/281 188/213/188 196/218/196 282/219/282
f 182/207/182 1/220/1 190/221/190
f 183/208/183 182/207/182 190/221/190 191/222/191
f 184/209/184 183/208/183 191/222/191 192/223/192
f 185/210/185 184/209/184 192/223/192 193/224/193
f 186/211/186 185/210/185 193/224/193 194/216/194
f 191/225/191 190/226/190 198/227/198 199/228/199
f 192/229/192 191/225/191 199/228/199 200/230/200
f 193/231/193 192/229/192 200/230/200 201/232/201
f 194/233/194 193/231/193 201/232/201 202/234/202
f 195/235/195 194/233/194 202/234/202 203/236/203
f 196/237/196 195/235/195 203/236/203 204/238/204
f 282/239/282 196/237/196 204/238/204 283/240/283
f 190/226/190 1/241/1 198/227/198
f 203/236/203 202/234/202 210/242/210 211/243/211
f 204/238/204 203/236/203 211/243/211 212/244/212
f 283/240/283 204/238/204 212/244/212 284/245/284
f 198/227/198 1/246/1 206/247/206
f 199/228/199 198/227/198 206/247/206 207/248/207
f 200/230/200 199/228/199 207/248/207 208/249/208
f 201/232/201 200/230/200 208/249/208 209/250/209
f 202/234/202 201/232/201 209/250/209 210/242/210
f 208/249/208 207/248/207 215/251/215 216/252/216
f 209/250/209 208/249/208 216/252/216 217/253/217
f 210/242/210 209/250/209 217/253/217 218/254/218
f 211/243/211 210/242/210 218/254/218 219/255/219
f 212/244/212 211/243/211 219/255/219 220/256/220
f 284/245/284 212/244/212 220/256/220 285/257/285
f 206/247/206 1/258/1 214/259/214
f 207/248/207 206/247/206 214/259/214 215/251/215
f 220/256/220 219/255/219 227/260/227 228/261/228
f 285/257/285 220/256/220 228/261/228 286/262/286
f 214/259/214 1/263/1 222/264/222
f 215/251/215 214/259/214 222/264/222 223/265/223
f 216/252/216 215/251/215 223/265/223 224/266/224
f 217/253/217 216/252/216 224/266/224 225/267/225
f 218/254/218 217/253/217 225/267/225 226/268/226
f 219/255/219 218/254/218 226/268/226 227/260/227
f 225/267/225 224/266/224 232/269/232 233/270/233
f 226/268/226 225/267/225 233/270/233 234/271/234
f 227/260/227 226/268/226 234/271/234 235/272/235
f 228/261/228 227/260/227 235/272/235 236/273/236
f 286/262/286 228/261/228 236/273/236 287/274/287
f 222/264/222 1/275/1 230/276/230
f 223/265/223 222/264/222 230/276/230 231/277/231
f 224/266/224 223/265/223 231/277/231 232/269/232
f 287/274/287 236/273/236 244/278/244 288/279/288
f 230/276/230 1/280/1 238/281/238
f 231/277/231 230/276/230 238/281/238 239/282/239
f 232/269/232 231/277/231 239/282/239 240/283/240
f 233/270/233 232/269/232 240/283/240 241/284/241
f 234/271/234 233/270/233 241/284/241 242/285/242
f 235/272/235 234/271/234 242/285/242 243/286/243
f 236/273/236 235/272/235 243/286/243 244/278/244
f 241/284/241 240/283/240 248/287/248 249/288/249
f 242/285/242 241/284/241 249/288/249 250/289/250
f 243/286/243 242/285/242 250/289/250 251/290/251
f 244/278/244 243/286/243 251/290/251 252/291/252
f 288/279/288 244/278/244 252/291/252 289/292/289
f 238/281/238 1/293/1 246/294/246
f 239/282/239 238/281/238 246/294/246 247/295/247
f 240/283/240 239/282/239 247/295/247 248/287/248
f 289/292/289 252/291/252 4/2/4 258/1/258
f 246/294/246 1/296/1 254/5/254
f 247/295/247 246/294/246 254/5/254 255/8/255
f 248/287/248 247/295/247 255/8/255 2/10/2
f 249/288/249 248/287/248 2/10/2 256/12/256
f 250/289/250 249/288/249 256/12/256 3/14/3
f 251/290/251 250/289/250 3/14/3 257/16/257
f 252/291/252 251/290/251 257/16/257 4/2/4
f 5/297/5 13/298/13 21/299/21 29/300/29 37/301/37 45/302/45 53/303/53 61/304/61 69/305/69 77/306/77 85/307/85 93/308/93 101/309/101 109/310/109 117/311/117 125/312/125 133/313/133 141/314/141 149/315/149 157/316/157 165/317/165 173/318/173 181/319/181 189/320/189 197/321/197 205/322/205 213/323/213 221/324/221 229/325/229 237/326/237 245/327/245 253/328/253
f 321/329/321 289/292/289 258/1/258 290/330/290
f 320/331/320 288/279/288 289/292/289 321/329/321
f 319/332/319 287/274/287 288/279/288 320/331/320
f 318/333/318 286/262/286 287/274/287 319/332/319
f 317/334/317 285/257/285 286/262/286 318/333/318
f 316/335/316 284/245/284 285/257/285 317/334/317
f 315/336/315 283/240/283 284/245/284 316/335/316
f 314/337/314 282/239/282 283/240/283 315/336/315
f 313/338/313 281/214/281 282/219/282 314/339/314
f 312/340/312 280/202/280 281/214/281 313/338/313
f 311/341/311 279/197/279 280/202/280 312/340/312
f 310/342/310 278/184/278 279/197/279 311/341/311
f 309/343/309 277/172/277 278/184/278 310/342/310
f 308/344/308 276/167/276 277/172/277 309/343/309
f 307/345/307 275/155/275 276/167/276 308/344/308
f 306/346/306 274/150/274 275/155/275 307/345/307
f 305/347/305 273/137/273 274/150/274 306/346/306
f 304/348/304 272/132/272 273/137/273 305/347/305
f 303/349/303 271/120/271 272/132/272 304/348/304
f 302/350/302 270/115/270 271/120/271 303/349/303
f 301/351/301 269/102/269 270/115/270 302/350/302
f 300/352/300 268/97/268 269/102/269 301/351/301
f 299/353/299 267/85/267 268/97/268 300/352/300
f 298/354/298 266/73/266 267/85/267 299/353/299
f 297/355/297 265/68/265 266/73/266 298/354/298
f 296/356/296 264/55/264 265/68/265 297/355/297
f 295/357/295 263/50/263 264/55/264 296/356/296
f 294/358/294 262/38/262 263/50/263 295/357/295
f 293/359/293 261/33/261 262/38/262 294/358/294
f 292/360/292 260/20/260 261/33/261 293/359/293
f 291/361/291 259/4/259 260/20/260 292/360/292
f 290/330/290 258/1/258 259/4/259 291/361/291
f 5/297/5 290/330/290 291/361/291 13/298/13
f 13/298/13 291/361/291 292/360/292 21/299/21
f 21/299/21 292/360/292 293/359/293 29/300/29
f 29/300/29 293/359/293 294/358/294 37/301/37
f 37/301/37 294/358/294 295/357/295 45/302/45
f 45/302/45 295/357/295 296/356/296 53/303/53
f 53/303/53 296/356/296 297/355/297 61/304/61
f 61/304/61 297/355/297 298/354/298 69/305/69
f 69/305/69 298/354/298 299/353/299 77/306/77
f 77/306/77 299/353/299 300/352/300 85/307/85
f 85/307/85 300/352/300 301/351/301 93/308/93
f 93/308/93 301/351/301 302/350/302 101/309/101
f 101/309/101 302/350/302 303/349/303 109/310/109
f 109/310/109 303/349/303 304/348/304 117/311/117
f 117/311/117 304/348/304 305/347/305 125/312/125
f 125/312/125 305/347/305 306/346/306 133/313/133
f 133/313/133 306/346/306 307/345/307 141/314/141
f 141/314/141 307/345/307 308/344/308 149/315/149
f 149/315/149 308/344/308 309/343/309 157/316/157
f 157/316/157 309/343/309 310/342/310 165/317/165
f 165/317/165 310/342/310 311/341/311 173/318/173
f 173/318/173 311/341/311 312/340/312 181/319/181
f 181/319/181 312/340/312 313/338/313 189/320/189
f 189/320/189 313/338/313 314/339/314 197/362/197
f 197/321/197 314/337/314 315/336/315 205/322/205
f 205/322/205 315/336/315 316/335/316 213/323/213
f 213/323/213 316/335/316 317/334/317 221/324/221
f 221/324/221 317/334/317 318/333/318 229/325/229
f 229/325/229 318/333/318 319/332/319 237/326/237
f 237/326/237 319/332/319 320/331/320 245/327/245
f 245/327/245 320/331/320 321/329/321 253/328/253
f 253/328/253 321/329/321 290/330/290 5/297/5
