# Blender 5.1.2
# www.blender.org
mtllib tophat.mtl
o Cylinder
v -0.000000 1.659024 0.000000
v -0.000000 1.975436 -0.981117
v 0.191406 1.975436 -0.962265
v 0.375457 1.975436 -0.906434
v 0.545079 1.975436 -0.815769
v 0.693754 1.975436 -0.693754
v 0.815769 1.975436 -0.545079
v 0.906434 1.975436 -0.375457
v 0.962265 1.975436 -0.191406
v 0.981117 1.975436 0.000000
v 0.962265 1.975436 0.191406
v 0.906434 1.975436 0.375457
v 0.815769 1.975436 0.545079
v 0.693754 1.975436 0.693754
v 0.545079 1.975436 0.815769
v 0.375457 1.975436 0.906434
v 0.191406 1.975436 0.962265
v -0.000000 1.975436 0.981117
v -0.191406 1.975436 0.962265
v -0.375457 1.975436 0.906434
v -0.545079 1.975436 0.815769
v -0.693754 1.975436 0.693754
v -0.815769 1.975436 0.545079
v -0.906434 1.975436 0.375457
v -0.962265 1.975436 0.191406
v -0.981117 1.975436 0.000000
v -0.962265 1.975436 -0.191406
v -0.906434 1.975436 -0.375457
v -0.815769 1.975436 -0.545079
v -0.693754 1.975436 -0.693754
v -0.545079 1.975436 -0.815769
v -0.375457 1.975436 -0.906434
v -0.191406 1.975436 -0.962265
v 0.301873 1.975436 -1.517617
v -0.000000 1.975436 -1.547349
v 0.592145 1.975436 -1.429564
v 0.859661 1.975436 -1.286573
v 1.094141 1.975436 -1.094141
v 1.286573 1.975436 -0.859661
v 1.429564 1.975436 -0.592145
v 1.517617 1.975436 -0.301873
v 1.547349 1.975436 0.000000
v 1.517617 1.975436 0.301873
v 1.429564 1.975436 0.592145
v 1.286573 1.975436 0.859661
v 1.094141 1.975436 1.094141
v 0.859661 1.975436 1.286573
v 0.592145 1.975436 1.429564
v 0.301873 1.975436 1.517617
v -0.000000 1.975436 1.547349
v -0.301873 1.975436 1.517617
v -0.592145 1.975436 1.429564
v -0.859661 1.975436 1.286573
v -1.094141 1.975436 1.094141
v -1.286573 1.975436 0.859661
v -1.429564 1.975436 0.592145
v -1.517617 1.975436 0.301873
v -1.547349 1.975436 0.000000
v -1.517617 1.975436 -0.301873
v -1.429564 1.975436 -0.592145
v -1.286573 1.975436 -0.859661
v -1.094141 1.975436 -1.094141
v -0.859661 1.975436 -1.286573
v -0.592145 1.975436 -1.429564
v -0.301873 1.975436 -1.517617
v -0.000000 3.232246 0.000000
v 0.191406 3.232246 -0.962265
v -0.000000 3.232246 -0.981117
v 0.375457 3.232246 -0.906434
v 0.545079 3.232246 -0.815769
v 0.693754 3.232246 -0.693754
v 0.815769 3.232246 -0.545079
v 0.906434 3.232246 -0.375457
v 0.962265 3.232246 -0.191406
v 0.981117 3.232246 0.000000
v 0.962265 3.232246 0.191406
v 0.906434 3.232246 0.375457
v 0.815769 3.232246 0.545079
v 0.693754 3.232246 0.693754
v 0.545079 3.232246 0.815769
v 0.375457 3.232246 0.906434
v 0.191406 3.232246 0.962265
v -0.000000 3.232246 0.981117
v -0.191406 3.232246 0.962265
v -0.375457 3.232246 0.906434
v -0.545079 3.232246 0.815769
v -0.693754 3.232246 0.693754
v -0.815769 3.232246 0.545079
v -0.906434 3.232246 0.375457
v -0.962265 3.232246 0.191406
v -0.981117 3.232246 0.000000
v -0.962265 3.232246 -0.191406
v -0.906434 3.232246 -0.375457
v -0.815769 3.232246 -0.545079
v -0.693754 3.232246 -0.693754
v -0.545079 3.232246 -0.815769
v -0.375457 3.232246 -0.906434
v -0.191406 3.232246 -0.962265
v 0.301873 1.659024 -1.517617
v -0.000000 1.659024 -1.547349
v 0.592145 1.659024 -1.429564
v 0.859661 1.659024 -1.286573
v 1.094141 1.659024 -1.094141
v 1.286573 1.659024 -0.859661
v 1.429564 1.659024 -0.592145
v 1.517617 1.659024 -0.301873
v 1.547349 1.659024 0.000000
v 1.517617 1.659024 0.301873
v 1.429564 1.659024 0.592145
v 1.286573 1.659024 0.859661
v 1.094141 1.659024 1.094141
v 0.859661 1.659024 1.286573
v 0.592145 1.659024 1.429564
v 0.301873 1.659024 1.517617
v -0.000000 1.659024 1.547349
v -0.301873 1.659024 1.517617
v -0.592145 1.659024 1.429564
v -0.859661 1.659024 1.286573
v -1.094141 1.659024 1.094141
v -1.286573 1.659024 0.859661
v -1.429564 1.659024 0.592145
v -1.517617 1.659024 0.301873
v -1.547349 1.659024 0.000000
v -1.517617 1.659024 -0.301873
v -1.429564 1.659024 -0.592145
v -1.286573 1.659024 -0.859661
v -1.094141 1.659024 -1.094141
v -0.859661 1.659024 -1.286573
v -0.592145 1.659024 -1.429564
v -0.301873 1.659024 -1.517617
vn -0.0000 -1.0000 -0.0000
vn -0.0000 0.7298 -0.6836
vn 0.1334 0.7298 -0.6705
vn 0.2616 0.7298 -0.6316
vn 0.3798 0.7298 -0.5684
vn 0.4834 0.7298 -0.4834
vn 0.5684 0.7298 -0.3798
vn 0.6316 0.7298 -0.2616
vn 0.6705 0.7298 -0.1334
vn 0.6836 0.7298 -0.0000
vn 0.6705 0.7298 0.1334
vn 0.6316 0.7298 0.2616
vn 0.5684 0.7298 0.3798
vn 0.4834 0.7298 0.4834
vn 0.3798 0.7298 0.5684
vn 0.2616 0.7298 0.6316
vn 0.1334 0.7298 0.6705
vn -0.0000 0.7298 0.6836
vn -0.1334 0.7298 0.6705
vn -0.2616 0.7298 0.6316
vn -0.3798 0.7298 0.5684
vn -0.4834 0.7298 0.4834
vn -0.5684 0.7298 0.3798
vn -0.6316 0.7298 0.2616
vn -0.6705 0.7298 0.1334
vn -0.6836 0.7298 -0.0000
vn -0.6705 0.7298 -0.1334
vn -0.6316 0.7298 -0.2616
vn -0.5684 0.7298 -0.3798
vn -0.4834 0.7298 -0.4834
vn -0.3798 0.7298 -0.5684
vn -0.2616 0.7298 -0.6316
vn -0.1334 0.7298 -0.6705
vn 0.1420 0.6857 -0.7139
vn -0.0000 0.6857 -0.7279
vn 0.2785 0.6857 -0.6725
vn 0.4044 0.6857 -0.6052
vn 0.5147 0.6857 -0.5147
vn 0.6052 0.6857 -0.4044
vn 0.6725 0.6857 -0.2785
vn 0.7139 0.6857 -0.1420
vn 0.7279 0.6857 -0.0000
vn 0.7139 0.6857 0.1420
vn 0.6725 0.6857 0.2785
vn 0.6052 0.6857 0.4044
vn 0.5147 0.6857 0.5147
vn 0.4044 0.6857 0.6052
vn 0.2785 0.6857 0.6725
vn 0.1420 0.6857 0.7139
vn -0.0000 0.6857 0.7279
vn -0.1420 0.6857 0.7139
vn -0.2785 0.6857 0.6725
vn -0.4044 0.6857 0.6052
vn -0.5147 0.6857 0.5147
vn -0.6052 0.6857 0.4044
vn -0.6725 0.6857 0.2785
vn -0.7139 0.6857 0.1420
vn -0.7279 0.6857 -0.0000
vn -0.7139 0.6857 -0.1420
vn -0.6725 0.6857 -0.2785
vn -0.6052 0.6857 -0.4044
vn -0.5147 0.6857 -0.5147
vn -0.4044 0.6857 -0.6052
vn -0.2785 0.6857 -0.6725
vn -0.1420 0.6857 -0.7139
vn -0.0000 1.0000 -0.0000
vn 0.1420 -0.6857 -0.7139
vn -0.0000 -0.6857 -0.7279
vn 0.2785 -0.6857 -0.6725
vn 0.4044 -0.6857 -0.6052
vn 0.5147 -0.6857 -0.5147
vn 0.6052 -0.6857 -0.4044
vn 0.6725 -0.6857 -0.2785
vn 0.7139 -0.6857 -0.1420
vn 0.7279 -0.6857 -0.0000
vn 0.7139 -0.6857 0.1420
vn 0.6725 -0.6857 0.2785
vn 0.6052 -0.6857 0.4044
vn 0.5147 -0.6857 0.5147
vn 0.4044 -0.6857 0.6052
vn 0.2785 -0.6857 0.6725
vn 0.1420 -0.6857 0.7139
vn -0.0000 -0.6857 0.7279
vn -0.1420 -0.6857 0.7139
vn -0.2785 -0.6857 0.6725
vn -0.4044 -0.6857 0.6052
vn -0.5147 -0.6857 0.5147
vn -0.6052 -0.6857 0.4044
vn -0.6725 -0.6857 0.2785
vn -0.7139 -0.6857 0.1420
vn -0.7279 -0.6857 -0.0000
vn -0.7139 -0.6857 -0.1420
vn -0.6725 -0.6857 -0.2785
vn -0.6052 -0.6857 -0.4044
vn -0.5147 -0.6857 -0.5147
vn -0.4044 -0.6857 -0.6052
vn -0.2785 -0.6857 -0.6725
vn -0.1420 -0.6857 -0.7139
vt 0.687447 0.506892
vt 0.687447 0.528451
vt 0.488215 0.528451
vt 0.488215 0.506892
vt 0.936838 0.688781
vt 0.936838 0.728762
vt 0.886679 0.728762
vt 0.886679 0.688781
vt 0.986996 0.773187
vt 0.986996 0.820348
vt 0.936838 0.820348
vt 0.936838 0.773187
vt 0.936838 0.654780
vt 0.936838 0.688781
vt 0.886679 0.688781
vt 0.886679 0.654780
vt 0.986996 0.728762
vt 0.936838 0.728762
vt 0.936838 0.614798
vt 0.886679 0.614798
vt 0.986996 0.688781
vt 0.936838 0.688781
vt 0.936838 0.570374
vt 0.886679 0.570374
vt 0.986996 0.654780
vt 0.986996 0.688781
vt 0.936838 0.523213
vt 0.886679 0.523213
vt 0.986996 0.383542
vt 0.986996 0.427966
vt 0.936838 0.427966
vt 0.936838 0.383542
vt 0.986996 0.614798
vt 0.936838 0.475128
vt 0.886679 0.475128
vt 0.986996 0.343560
vt 0.936838 0.343560
vt 0.986996 0.570374
vt 0.936838 0.427966
vt 0.886679 0.427966
vt 0.986996 0.309559
vt 0.936838 0.309559
vt 0.986996 0.523213
vt 0.936838 0.523213
vt 0.886679 0.383542
vt 0.936838 0.960019
vt 0.936838 1.000000
vt 0.886679 1.000000
vt 0.886679 0.960019
vt 0.986996 0.475128
vt 0.936838 0.475128
vt 0.886679 0.343560
vt 0.936838 0.915594
vt 0.886679 0.915594
vt 0.886679 0.309559
vt 0.936838 0.868433
vt 0.886679 0.868433
vt 0.986996 0.960019
vt 0.986996 1.000000
vt 0.936838 0.960019
vt 0.886679 0.820348
vt 0.986996 0.915594
vt 0.936838 0.773187
vt 0.886679 0.773187
vt 0.986996 0.868433
vt 0.089328 0.259352
vt 0.095276 0.289255
vt 0.009381 0.315311
vt 0.000000 0.268150
vt 0.106944 0.317423
vt 0.027782 0.359736
vt 0.123883 0.342774
vt 0.054497 0.399717
vt 0.145441 0.364333
vt 0.088498 0.433719
vt 0.170792 0.381272
vt 0.128479 0.460433
vt 0.198960 0.392939
vt 0.172904 0.478834
vt 0.228863 0.398887
vt 0.220065 0.488215
vt 0.259352 0.398887
vt 0.268150 0.488215
vt 0.289255 0.392939
vt 0.315311 0.478834
vt 0.317423 0.381272
vt 0.359736 0.460433
vt 0.342774 0.364333
vt 0.399717 0.433718
vt 0.364333 0.342774
vt 0.433719 0.399717
vt 0.381272 0.317423
vt 0.460433 0.359736
vt 0.392939 0.289255
vt 0.478834 0.315311
vt 0.398887 0.259352
vt 0.488215 0.268150
vt 0.398887 0.228863
vt 0.488215 0.220065
vt 0.392939 0.198960
vt 0.478834 0.172904
vt 0.381272 0.170792
vt 0.460433 0.128479
vt 0.364333 0.145441
vt 0.433718 0.088498
vt 0.342774 0.123882
vt 0.399717 0.054497
vt 0.317423 0.106944
vt 0.359736 0.027782
vt 0.289255 0.095276
vt 0.315311 0.009381
vt 0.259352 0.089328
vt 0.268150 0.000000
vt 0.228863 0.089328
vt 0.220065 0.000000
vt 0.198960 0.095276
vt 0.172904 0.009381
vt 0.170792 0.106944
vt 0.128479 0.027782
vt 0.145441 0.123883
vt 0.088498 0.054497
vt 0.123882 0.145441
vt 0.054497 0.088498
vt 0.106944 0.170792
vt 0.027782 0.128479
vt 0.095276 0.198960
vt 0.009381 0.172904
vt 0.089328 0.228863
vt 0.000000 0.220065
vt 0.886679 0.334910
vt 0.886679 0.363078
vt 0.687447 0.363078
vt 0.687447 0.334910
vt 0.687447 0.481541
vt 0.488215 0.481541
vt 0.687447 0.309559
vt 0.687447 0.453373
vt 0.488215 0.453373
vt 0.687447 0.725783
vt 0.687447 0.747342
vt 0.488215 0.747342
vt 0.488215 0.725783
vt 0.687447 0.423470
vt 0.488215 0.423470
vt 0.687447 0.553801
vt 0.687447 0.581969
vt 0.488215 0.581969
vt 0.488215 0.553801
vt 0.687447 0.700433
vt 0.488215 0.700433
vt 0.687447 0.392981
vt 0.488215 0.392981
vt 0.687447 0.672265
vt 0.488215 0.672265
vt 0.687447 0.363078
vt 0.488215 0.363078
vt 0.886679 0.725783
vt 0.886679 0.747342
vt 0.687447 0.747342
vt 0.687447 0.642362
vt 0.488215 0.642362
vt 0.687447 0.334910
vt 0.488215 0.334910
vt 0.886679 0.700433
vt 0.687447 0.611873
vt 0.488215 0.611873
vt 0.687447 0.309559
vt 0.488215 0.309559
vt 0.886679 0.672265
vt 0.687447 0.672265
vt 0.886679 0.506892
vt 0.886679 0.528451
vt 0.687447 0.528451
vt 0.687447 0.506892
vt 0.886679 0.642361
vt 0.687447 0.642361
vt 0.886679 0.481541
vt 0.687447 0.481541
vt 0.886679 0.611873
vt 0.687447 0.611872
vt 0.886679 0.453373
vt 0.687447 0.453373
vt 0.886679 0.581969
vt 0.687447 0.581969
vt 0.886679 0.423470
vt 0.687447 0.423470
vt 0.886679 0.553801
vt 0.687447 0.553801
vt 0.886679 0.392981
vt 0.687447 0.392981
vt 0.886679 0.528451
vt 0.642995 0.154780
vt 0.544329 0.275005
vt 0.522770 0.253446
vt 0.569679 0.291944
vt 0.597848 0.303611
vt 0.627751 0.309559
vt 0.658240 0.309559
vt 0.688143 0.303611
vt 0.716311 0.291944
vt 0.741661 0.275005
vt 0.763220 0.253446
vt 0.780159 0.228095
vt 0.791827 0.199927
vt 0.797775 0.170024
vt 0.797775 0.139535
vt 0.791827 0.109632
vt 0.780159 0.081464
vt 0.763220 0.056113
vt 0.741661 0.034554
vt 0.716311 0.017616
vt 0.688143 0.005948
vt 0.658239 0.000000
vt 0.627751 0.000000
vt 0.597847 0.005948
vt 0.569679 0.017616
vt 0.544329 0.034554
vt 0.522770 0.056113
vt 0.505831 0.081464
vt 0.494163 0.109632
vt 0.488215 0.139535
vt 0.488215 0.170024
vt 0.494163 0.199927
vt 0.505831 0.228095
vt 0.244108 0.732323
vt 0.000000 0.756366
vt 0.000000 0.708281
vt 0.009381 0.661120
vt 0.027782 0.616695
vt 0.054497 0.576714
vt 0.088498 0.542712
vt 0.128479 0.515998
vt 0.172904 0.497596
vt 0.220065 0.488215
vt 0.268150 0.488215
vt 0.315311 0.497596
vt 0.359736 0.515998
vt 0.399717 0.542712
vt 0.433718 0.576714
vt 0.460433 0.616695
vt 0.478834 0.661119
vt 0.488215 0.708281
vt 0.488215 0.756366
vt 0.478834 0.803527
vt 0.460433 0.847951
vt 0.433719 0.887933
vt 0.399717 0.921934
vt 0.359736 0.948648
vt 0.315311 0.967050
vt 0.268150 0.976431
vt 0.220065 0.976431
vt 0.172904 0.967050
vt 0.128479 0.948649
vt 0.088498 0.921934
vt 0.054497 0.887933
vt 0.027782 0.847952
vt 0.009381 0.803527
s 1
usemtl Material
f 13/1/13 12/2/12 77/3/44 78/4/45
f 109/5/77 108/6/76 43/7/43 44/8/44
f 123/9/91 122/10/90 57/11/57 58/12/58
f 110/13/78 109/14/77 44/15/44 45/16/45
f 124/17/92 123/9/91 58/12/58 59/18/59
f 111/19/79 110/13/78 45/16/45 46/20/46
f 125/21/93 124/17/92 59/18/59 60/22/60
f 112/23/80 111/19/79 46/20/46 47/24/47
f 126/25/94 125/26/93 60/14/60 61/13/61
f 113/27/81 112/23/80 47/24/47 48/28/48
f 99/29/67 100/30/68 35/31/35 34/32/34
f 127/33/95 126/25/94 61/13/61 62/19/62
f 114/34/82 113/27/81 48/28/48 49/35/49
f 101/36/69 99/29/67 34/32/34 36/37/36
f 128/38/96 127/33/95 62/19/62 63/23/63
f 115/39/83 114/34/82 49/35/49 50/40/50
f 102/41/70 101/36/69 36/37/36 37/42/37
f 129/43/97 128/38/96 63/23/63 64/44/64
f 116/32/84 115/39/83 50/40/50 51/45/51
f 103/46/71 102/47/70 37/48/37 38/49/38
f 130/50/98 129/43/97 64/44/64 65/51/65
f 117/37/85 116/32/84 51/45/51 52/52/52
f 104/53/72 103/46/71 38/49/38 39/54/39
f 100/30/68 130/50/98 65/51/65 35/31/35
f 118/42/86 117/37/85 52/52/52 53/55/53
f 105/56/73 104/53/72 39/54/39 40/57/40
f 119/58/87 118/59/86 53/47/53 54/60/54
f 106/11/74 105/56/73 40/57/40 41/61/41
f 120/62/88 119/58/87 54/60/54 55/53/55
f 107/63/75 106/11/74 41/61/41 42/64/42
f 121/65/89 120/62/88 55/53/55 56/56/56
f 108/6/76 107/63/75 42/64/42 43/7/43
f 122/10/90 121/65/89 56/56/56 57/11/57
f 2/66/2 3/67/3 34/68/34 35/69/35
f 3/67/3 4/70/4 36/71/36 34/68/34
f 4/70/4 5/72/5 37/73/37 36/71/36
f 5/72/5 6/74/6 38/75/38 37/73/37
f 6/74/6 7/76/7 39/77/39 38/75/38
f 7/76/7 8/78/8 40/79/40 39/77/39
f 8/78/8 9/80/9 41/81/41 40/79/40
f 9/80/9 10/82/10 42/83/42 41/81/41
f 10/82/10 11/84/11 43/85/43 42/83/42
f 11/84/11 12/86/12 44/87/44 43/85/43
f 12/86/12 13/88/13 45/89/45 44/87/44
f 13/88/13 14/90/14 46/91/46 45/89/45
f 14/90/14 15/92/15 47/93/47 46/91/46
f 15/92/15 16/94/16 48/95/48 47/93/47
f 16/94/16 17/96/17 49/97/49 48/95/48
f 17/96/17 18/98/18 50/99/50 49/97/49
f 18/98/18 19/100/19 51/101/51 50/99/50
f 19/100/19 20/102/20 52/103/52 51/101/51
f 20/102/20 21/104/21 53/105/53 52/103/52
f 21/104/21 22/106/22 54/107/54 53/105/53
f 22/106/22 23/108/23 55/109/55 54/107/54
f 23/108/23 24/110/24 56/111/56 55/109/55
f 24/110/24 25/112/25 57/113/57 56/111/56
f 25/112/25 26/114/26 58/115/58 57/113/57
f 26/114/26 27/116/27 59/117/59 58/115/58
f 27/116/27 28/118/28 60/119/60 59/117/59
f 28/118/28 29/120/29 61/121/61 60/119/60
f 29/120/29 30/122/30 62/123/62 61/121/61
f 30/122/30 31/124/31 63/125/63 62/123/62
f 31/124/31 32/126/32 64/127/64 63/125/63
f 32/126/32 33/128/33 65/129/65 64/127/64
f 33/128/33 2/66/2 35/69/35 65/129/65
f 27/130/27 26/131/26 91/132/58 92/133/59
f 14/134/14 13/1/13 78/4/45 79/135/46
f 28/55/28 27/130/27 92/133/59 93/136/60
f 15/137/15 14/134/14 79/135/46 80/138/47
f 29/139/29 28/140/28 93/141/60 94/142/61
f 16/143/16 15/137/15 80/138/47 81/144/48
f 3/145/3 2/146/2 68/147/35 67/148/34
f 30/149/30 29/139/29 94/142/61 95/150/62
f 17/151/17 16/143/16 81/144/48 82/152/49
f 4/2/4 3/145/3 67/148/34 69/3/36
f 31/153/31 30/149/30 95/150/62 96/154/63
f 18/155/18 17/151/17 82/152/49 83/156/50
f 5/157/5 4/158/4 69/159/36 70/139/37
f 32/160/32 31/153/31 96/154/63 97/161/64
f 19/162/19 18/155/18 83/156/50 84/163/51
f 6/164/6 5/157/5 70/139/37 71/149/38
f 33/165/33 32/160/32 97/161/64 98/166/65
f 20/167/20 19/162/19 84/163/51 85/168/52
f 7/169/7 6/164/6 71/149/38 72/170/39
f 2/146/2 33/165/33 98/166/65 68/147/35
f 21/171/21 20/172/20 85/173/52 86/174/53
f 8/175/8 7/169/7 72/170/39 73/176/40
f 22/177/22 21/171/21 86/174/53 87/178/54
f 9/179/9 8/175/8 73/176/40 74/180/41
f 23/181/23 22/177/22 87/178/54 88/182/55
f 10/183/10 9/179/9 74/180/41 75/184/42
f 24/185/24 23/181/23 88/182/55 89/186/56
f 11/187/11 10/183/10 75/184/42 76/188/43
f 25/189/25 24/185/24 89/186/56 90/190/57
f 12/191/12 11/187/11 76/188/43 77/2/44
f 26/131/26 25/189/25 90/190/57 91/132/58
f 66/192/66 67/193/34 68/194/35
f 66/192/66 69/195/36 67/193/34
f 66/192/66 70/196/37 69/195/36
f 66/192/66 71/197/38 70/196/37
f 66/192/66 72/198/39 71/197/38
f 66/192/66 73/199/40 72/198/39
f 66/192/66 74/200/41 73/199/40
f 66/192/66 75/201/42 74/200/41
f 66/192/66 76/202/43 75/201/42
f 66/192/66 77/203/44 76/202/43
f 66/192/66 78/204/45 77/203/44
f 66/192/66 79/205/46 78/204/45
f 66/192/66 80/206/47 79/205/46
f 66/192/66 81/207/48 80/206/47
f 66/192/66 82/208/49 81/207/48
f 66/192/66 83/209/50 82/208/49
f 66/192/66 84/210/51 83/209/50
f 66/192/66 85/211/52 84/210/51
f 66/192/66 86/212/53 85/211/52
f 66/192/66 87/213/54 86/212/53
f 66/192/66 88/214/55 87/213/54
f 66/192/66 89/215/56 88/214/55
f 66/192/66 90/216/57 89/215/56
f 66/192/66 91/217/58 90/216/57
f 66/192/66 92/218/59 91/217/58
f 66/192/66 93/219/60 92/218/59
f 66/192/66 94/220/61 93/219/60
f 66/192/66 95/221/62 94/220/61
f 66/192/66 96/222/63 95/221/62
f 66/192/66 97/223/64 96/222/63
f 66/192/66 98/224/65 97/223/64
f 66/192/66 68/194/35 98/224/65
f 1/225/1 100/226/68 99/227/67
f 1/225/1 99/227/67 101/228/69
f 1/225/1 101/228/69 102/229/70
f 1/225/1 102/229/70 103/230/71
f 1/225/1 103/230/71 104/231/72
f 1/225/1 104/231/72 105/232/73
f 1/225/1 105/232/73 106/233/74
f 1/225/1 106/233/74 107/234/75
f 1/225/1 107/234/75 108/235/76
f 1/225/1 108/235/76 109/236/77
f 1/225/1 109/236/77 110/237/78
f 1/225/1 110/237/78 111/238/79
f 1/225/1 111/238/79 112/239/80
f 1/225/1 112/239/80 113/240/81
f 1/225/1 113/240/81 114/241/82
f 1/225/1 114/241/82 115/242/83
f 1/225/1 115/242/83 116/243/84
f 1/225/1 116/243/84 117/244/85
f 1/225/1 117/244/85 118/245/86
f 1/225/1 118/245/86 119/246/87
f 1/225/1 119/246/87 120/247/88
f 1/225/1 120/247/88 121/248/89
f 1/225/1 121/248/89 122/249/90
f 1/225/1 122/249/90 123/250/91
f 1/225/1 123/250/91 124/251/92
f 1/225/1 124/251/92 125/252/93
f 1/225/1 125/252/93 126/253/94
f 1/225/1 126/253/94 127/254/95
f 1/225/1 127/254/95 128/255/96
f 1/225/1 128/255/96 129/256/97
f 1/225/1 129/256/97 130/257/98
f 1/225/1 130/257/98 100/226/68
