# Blender 5.1.0
# www.blender.org
mtllib cylinder.mtl
o Cube
v 0.500000 0.500000 -0.000000
v 0.000000 0.500000 -0.500000
v 0.461957 0.500000 -0.191478
v 0.353618 0.500000 -0.353618
v 0.191478 0.500000 -0.461957
v 0.000000 -0.500000 -0.500000
v 0.500000 -0.500000 0.000000
v 0.191478 -0.500000 -0.461956
v 0.353618 -0.500000 -0.353618
v 0.461957 -0.500000 -0.191478
v 0.000000 0.500000 0.500000
v 0.191478 0.500000 0.461956
v 0.353618 0.500000 0.353618
v 0.461957 0.500000 0.191478
v 0.000000 -0.500000 0.500000
v 0.461957 -0.500000 0.191478
v 0.353618 -0.500000 0.353618
v 0.191478 -0.500000 0.461957
v -0.500000 0.500000 -0.000000
v -0.191478 0.500000 -0.461957
v -0.353618 0.500000 -0.353618
v -0.461957 0.500000 -0.191478
v -0.500000 -0.500000 0.000000
v -0.461957 -0.500000 -0.191478
v -0.353618 -0.500000 -0.353618
v -0.191478 -0.500000 -0.461956
v -0.461957 0.500000 0.191478
v -0.353618 0.500000 0.353618
v -0.191478 0.500000 0.461956
v -0.191478 -0.500000 0.461957
v -0.353618 -0.500000 0.353618
v -0.461957 -0.500000 0.191478
vn 0.9808 -0.0000 -0.1949
vn 0.8315 -0.0000 -0.5556
vn 0.5556 -0.0000 -0.8315
vn 0.1949 -0.0000 -0.9808
vn -0.1949 -0.0000 0.9808
vn -0.5556 -0.0000 0.8315
vn -0.8315 -0.0000 0.5556
vn -0.9808 -0.0000 0.1949
vn 0.1949 -0.0000 0.9808
vn 0.5556 -0.0000 0.8315
vn 0.8315 -0.0000 0.5556
vn 0.9808 -0.0000 0.1949
vn -0.1949 -0.0000 -0.9808
vn -0.5556 -0.0000 -0.8315
vn -0.8315 -0.0000 -0.5556
vn -0.9808 -0.0000 -0.1949
vn -0.0000 1.0000 -0.0000
vn -0.0000 -1.0000 -0.0000
vt 0.625000 0.624945
vt 0.375000 0.624945
vt 0.371830 0.577131
vt 0.628170 0.577131
vt 0.362802 0.512199
vt 0.637199 0.512199
vt 0.349290 0.451750
vt 0.650710 0.451750
vt 0.333352 0.416703
vt 0.666648 0.416703
vt 0.375000 0.875055
vt 0.625000 0.875055
vt 0.625000 0.922869
vt 0.375000 0.922869
vt 0.625000 1.000000
vt 0.375000 1.000000
vt 0.375000 0.000000
vt 0.625000 0.000000
vt 0.625000 0.077131
vt 0.375000 0.077131
vt 0.625000 0.124945
vt 0.375000 0.124945
vt 0.666648 0.833297
vt 0.333352 0.833297
vt 0.349290 0.798250
vt 0.650710 0.798250
vt 0.362802 0.737802
vt 0.637199 0.737802
vt 0.371830 0.672869
vt 0.628170 0.672870
vt 0.375000 0.625055
vt 0.625000 0.625055
vt 0.625000 0.374945
vt 0.375000 0.374945
vt 0.375000 0.327131
vt 0.625000 0.327131
vt 0.375000 0.250000
vt 0.625000 0.250000
vt 0.375000 0.172869
vt 0.625000 0.172869
vt 0.375000 0.125055
vt 0.625000 0.125055
vt 0.750055 0.500000
vt 0.797869 0.509511
vt 0.838404 0.536596
vt 0.865489 0.577131
vt 0.875000 0.625055
vt 0.865489 0.672869
vt 0.838405 0.713405
vt 0.797869 0.740489
vt 0.125000 0.624945
vt 0.134511 0.577131
vt 0.161596 0.536596
vt 0.202131 0.509511
vt 0.249945 0.750000
vt 0.202131 0.740489
vt 0.161596 0.713405
vt 0.134511 0.672870
s 1
usemtl Material.001
f 1/1/1 7/2/1 10/3/1 3/4/1
f 3/4/2 10/3/2 9/5/2 4/6/2
f 4/6/3 9/5/3 8/7/3 5/8/3
f 5/8/4 8/7/4 6/9/4 2/10/4
f 15/11/5 11/12/5 29/13/5 30/14/5
f 30/14/6 29/13/6 28/15/6 31/16/6
f 31/17/7 28/18/7 27/19/7 32/20/7
f 32/20/8 27/19/8 19/21/8 23/22/8
f 11/23/9 15/24/9 18/25/9 12/26/9
f 12/26/10 18/25/10 17/27/10 13/28/10
f 13/28/11 17/27/11 16/29/11 14/30/11
f 14/30/12 16/29/12 7/31/12 1/32/12
f 2/33/13 6/34/13 26/35/13 20/36/13
f 20/36/14 26/35/14 25/37/14 21/38/14
f 21/38/15 25/37/15 24/39/15 22/40/15
f 22/40/16 24/39/16 23/41/16 19/42/16
f 1/1/17 3/4/17 4/6/17 5/8/17 2/43/17 20/44/17 21/45/17 22/46/17 19/47/17 27/48/17 28/49/17 29/50/17 11/23/17 12/26/17 13/28/17 14/30/17
f 23/51/18 24/52/18 25/53/18 26/54/18 6/9/18 8/7/18 9/5/18 10/3/18 7/31/18 16/29/18 17/27/18 18/25/18 15/55/18 30/56/18 31/57/18 32/58/18
