# Blender 5.1.2
# www.blender.org
mtllib headnew.mtl
o Cylinder
v 0.000000 -0.864518 -0.361958
v -0.000000 -0.349904 -1.039598
v 0.000000 -0.789976 -0.680979
v 0.000000 -0.619145 -0.914519
v -0.000000 1.422657 -0.361958
v 0.000000 1.078187 -1.000000
v -0.000000 1.348115 -0.680979
v -0.000000 1.245207 -0.914519
v 0.070615 -0.864518 -0.355003
v 0.202816 -0.349904 -1.019622
v 0.132852 -0.789976 -0.667894
v 0.178414 -0.619145 -0.896946
v 0.070615 1.422657 -0.355003
v 0.195090 1.078187 -0.980785
v 0.132852 1.348115 -0.667894
v 0.178414 1.245207 -0.896946
v 0.138516 -0.864518 -0.334406
v 0.397837 -0.349904 -0.960463
v 0.260600 -0.789976 -0.629143
v 0.349971 -0.619145 -0.844905
v 0.138516 1.422657 -0.334406
v 0.382683 1.078187 -0.923880
v 0.260600 1.348115 -0.629143
v 0.349971 1.245207 -0.844905
v 0.201093 -0.864518 -0.300957
v 0.577570 -0.349904 -0.864394
v 0.378332 -0.789976 -0.566213
v 0.508079 -0.619145 -0.760394
v 0.201093 1.422657 -0.300957
v 0.555570 1.078187 -0.831470
v 0.378332 1.348115 -0.566213
v 0.508079 1.245207 -0.760394
v 0.255943 -0.864518 -0.255943
v 0.735107 -0.349904 -0.735107
v 0.481525 -0.789976 -0.481525
v 0.646662 -0.619145 -0.646662
v 0.255943 1.422657 -0.255943
v 0.707107 1.078187 -0.707107
v 0.481525 1.348115 -0.481525
v 0.646662 1.245207 -0.646662
v 0.300957 -0.864518 -0.201093
v 0.864394 -0.349904 -0.577570
v 0.566213 -0.789976 -0.378332
v 0.760394 -0.619145 -0.508079
v 0.300957 1.422657 -0.201093
v 0.831470 1.078187 -0.555570
v 0.566213 1.348115 -0.378332
v 0.760394 1.245207 -0.508079
v 0.334406 -0.864518 -0.138516
v 0.960463 -0.349904 -0.397837
v 0.629143 -0.789976 -0.260600
v 0.844905 -0.619145 -0.349971
v 0.334406 1.422657 -0.138516
v 0.923880 1.078187 -0.382683
v 0.629143 1.348115 -0.260600
v 0.844905 1.245207 -0.349971
v 0.355003 -0.864518 -0.070615
v 1.019622 -0.349904 -0.202816
v 0.667894 -0.789976 -0.132852
v 0.896946 -0.619145 -0.178414
v 0.355003 1.422657 -0.070615
v 0.980785 1.078187 -0.195090
v 0.667894 1.348115 -0.132852
v 0.896946 1.245207 -0.178414
v 0.361958 -0.864518 0.000000
v 1.039598 -0.349904 0.000000
v 0.680979 -0.789976 0.000000
v 0.914519 -0.619145 0.000000
v 0.361958 1.422657 -0.000000
v 1.000000 1.078187 0.000000
v 0.680979 1.348115 -0.000000
v 0.914519 1.245207 -0.000000
v 0.355003 -0.864518 0.070615
v 1.019622 -0.349904 0.202816
v 0.667894 -0.789976 0.132852
v 0.896946 -0.619145 0.178414
v 0.355003 1.422657 0.070615
v 0.980785 1.078187 0.195090
v 0.667894 1.348115 0.132852
v 0.896946 1.245207 0.178414
v 0.334406 -0.864518 0.138516
v 0.960463 -0.349904 0.397837
v 0.629143 -0.789976 0.260600
v 0.844905 -0.619145 0.349971
v 0.334406 1.422657 0.138516
v 0.923880 1.078187 0.382683
v 0.629143 1.348115 0.260600
v 0.844905 1.245207 0.349971
v 0.300957 -0.864518 0.201093
v 0.864394 -0.349904 0.577570
v 0.566213 -0.789976 0.378332
v 0.760394 -0.619145 0.508079
v 0.300957 1.422657 0.201093
v 0.831470 1.078187 0.555570
v 0.566213 1.348115 0.378332
v 0.760394 1.245207 0.508079
v 0.255943 -0.864518 0.255943
v 0.735107 -0.349904 0.735107
v 0.481525 -0.789976 0.481525
v 0.646662 -0.619145 0.646662
v 0.255943 1.422657 0.255943
v 0.707107 1.078187 0.707107
v 0.481525 1.348115 0.481525
v 0.646662 1.245207 0.646662
v 0.201093 -0.864518 0.300957
v 0.577570 -0.349904 0.864394
v 0.378332 -0.789976 0.566213
v 0.508079 -0.619145 0.760394
v 0.201093 1.422657 0.300957
v 0.555570 1.078187 0.831470
v 0.378332 1.348115 0.566213
v 0.508079 1.245207 0.760394
v 0.138516 -0.864518 0.334406
v 0.397837 -0.349904 0.960463
v 0.260600 -0.789976 0.629143
v 0.349971 -0.619145 0.844905
v 0.138516 1.422657 0.334406
v 0.382683 1.078187 0.923880
v 0.260600 1.348115 0.629143
v 0.349971 1.245207 0.844905
v 0.070615 -0.864518 0.355003
v 0.202816 -0.349904 1.019622
v 0.132852 -0.789976 0.667894
v 0.178414 -0.619145 0.896946
v 0.070615 1.422657 0.355003
v 0.195090 1.078187 0.980785
v 0.132852 1.348115 0.667894
v 0.178414 1.245207 0.896946
v -0.000000 -0.864518 0.361958
v -0.000000 -0.349904 1.039598
v -0.000000 -0.789976 0.680979
v -0.000000 -0.619145 0.914519
v 0.000000 1.422657 0.361958
v 0.000000 1.078187 1.000000
v 0.000000 1.348115 0.680979
v 0.000000 1.245207 0.914519
v -0.070615 -0.864518 0.355003
v -0.202816 -0.349904 1.019622
v -0.132852 -0.789976 0.667894
v -0.178414 -0.619145 0.896946
v -0.070615 1.422657 0.355003
v -0.195090 1.078187 0.980785
v -0.132852 1.348115 0.667894
v -0.178414 1.245207 0.896946
v -0.138516 -0.864518 0.334406
v -0.397837 -0.349904 0.960463
v -0.260600 -0.789976 0.629143
v -0.349971 -0.619145 0.844905
v -0.138516 1.422657 0.334406
v -0.382683 1.078187 0.923880
v -0.260600 1.348115 0.629143
v -0.349971 1.245207 0.844905
v -0.201093 -0.864518 0.300957
v -0.577570 -0.349904 0.864394
v -0.378332 -0.789976 0.566213
v -0.508079 -0.619145 0.760394
v -0.201093 1.422657 0.300957
v -0.555570 1.078187 0.831470
v -0.378332 1.348115 0.566213
v -0.508079 1.245207 0.760394
v -0.255943 -0.864518 0.255943
v -0.735107 -0.349904 0.735107
v -0.481525 -0.789976 0.481525
v -0.646662 -0.619145 0.646662
v -0.255943 1.422657 0.255943
v -0.707107 1.078187 0.707107
v -0.481525 1.348115 0.481525
v -0.646662 1.245207 0.646662
v -0.300957 -0.864518 0.201093
v -0.864394 -0.349904 0.577570
v -0.566213 -0.789976 0.378332
v -0.760394 -0.619145 0.508079
v -0.300957 1.422657 0.201093
v -0.831470 1.078187 0.555570
v -0.566213 1.348115 0.378332
v -0.760394 1.245207 0.508079
v -0.334406 -0.864518 0.138516
v -0.960463 -0.349904 0.397837
v -0.629143 -0.789976 0.260600
v -0.844905 -0.619145 0.349971
v -0.334406 1.422657 0.138516
v -0.923880 1.078187 0.382683
v -0.629143 1.348115 0.260600
v -0.844905 1.245207 0.349971
v -0.355003 -0.864518 0.070615
v -1.019622 -0.349904 0.202816
v -0.667894 -0.789976 0.132852
v -0.896946 -0.619145 0.178414
v -0.355003 1.422657 0.070615
v -0.980785 1.078187 0.195090
v -0.667894 1.348115 0.132852
v -0.896946 1.245207 0.178414
v -0.361958 -0.864518 -0.000000
v -1.039598 -0.349904 0.000000
v -0.680979 -0.789976 -0.000000
v -0.914519 -0.619145 -0.000000
v -0.361958 1.422657 0.000000
v -1.000000 1.078187 0.000000
v -0.680979 1.348115 0.000000
v -0.914519 1.245207 0.000000
v -0.355003 -0.864518 -0.070615
v -1.019622 -0.349904 -0.202816
v -0.667894 -0.789976 -0.132852
v -0.896946 -0.619145 -0.178414
v -0.355003 1.422657 -0.070615
v -0.980785 1.078187 -0.195090
v -0.667894 1.348115 -0.132852
v -0.896946 1.245207 -0.178414
v -0.334406 -0.864518 -0.138516
v -0.960463 -0.349904 -0.397837
v -0.629143 -0.789976 -0.260600
v -0.844905 -0.619145 -0.349971
v -0.334406 1.422657 -0.138516
v -0.923880 1.078187 -0.382683
v -0.629143 1.348115 -0.260600
v -0.844905 1.245207 -0.349971
v -0.300957 -0.864518 -0.201093
v -0.864394 -0.349904 -0.577570
v -0.566213 -0.789976 -0.378332
v -0.760394 -0.619145 -0.508079
v -0.300957 1.422657 -0.201093
v -0.831470 1.078187 -0.555570
v -0.566213 1.348115 -0.378332
v -0.760394 1.245207 -0.508079
v -0.255943 -0.864518 -0.255943
v -0.735107 -0.349904 -0.735107
v -0.481525 -0.789976 -0.481525
v -0.646662 -0.619145 -0.646662
v -0.255943 1.422657 -0.255943
v -0.707107 1.078187 -0.707107
v -0.481525 1.348115 -0.481525
v -0.646662 1.245207 -0.646662
v -0.201093 -0.864518 -0.300957
v -0.577570 -0.349904 -0.864394
v -0.378332 -0.789976 -0.566213
v -0.508079 -0.619145 -0.760394
v -0.201093 1.422657 -0.300957
v -0.555570 1.078187 -0.831470
v -0.378332 1.348115 -0.566213
v -0.508079 1.245207 -0.760394
v -0.138516 -0.864518 -0.334406
v -0.397837 -0.349904 -0.960463
v -0.260600 -0.789976 -0.629143
v -0.349971 -0.619145 -0.844905
v -0.138516 1.422657 -0.334406
v -0.382683 1.078187 -0.923880
v -0.260600 1.348115 -0.629143
v -0.349971 1.245207 -0.844905
v -0.070615 -0.864518 -0.355003
v -0.202816 -0.349904 -1.019622
v -0.132852 -0.789976 -0.667894
v -0.178414 -0.619145 -0.896946
v -0.070615 1.422657 -0.355003
v -0.195090 1.078187 -0.980785
v -0.132852 1.348115 -0.667894
v -0.178414 1.245207 -0.896946
vn -0.0000 -0.9926 -0.1216
vn -0.0000 -0.1994 -0.9799
vn -0.0000 -0.9040 -0.4276
vn -0.0000 -0.6267 -0.7792
vn -0.0000 0.9926 -0.1216
vn -0.0000 0.2445 -0.9696
vn -0.0000 0.9468 -0.3219
vn -0.0000 0.7170 -0.6971
vn 0.0237 -0.9926 -0.1192
vn 0.1912 -0.1994 -0.9611
vn 0.0834 -0.9040 -0.4193
vn 0.1520 -0.6267 -0.7643
vn 0.0237 0.9926 -0.1192
vn 0.1892 0.2445 -0.9510
vn 0.0628 0.9468 -0.3157
vn 0.1360 0.7170 -0.6837
vn 0.0465 -0.9926 -0.1123
vn 0.3750 -0.1994 -0.9053
vn 0.1636 -0.9040 -0.3950
vn 0.2982 -0.6267 -0.7199
vn 0.0465 0.9926 -0.1123
vn 0.3711 0.2445 -0.8958
vn 0.1232 0.9468 -0.2974
vn 0.2668 0.7170 -0.6440
vn 0.0675 -0.9926 -0.1011
vn 0.5444 -0.1994 -0.8148
vn 0.2375 -0.9040 -0.3555
vn 0.4329 -0.6267 -0.6479
vn 0.0675 0.9926 -0.1011
vn 0.5387 0.2445 -0.8062
vn 0.1789 0.9468 -0.2677
vn 0.3873 0.7170 -0.5796
vn 0.0860 -0.9926 -0.0860
vn 0.6929 -0.1994 -0.6929
vn 0.3023 -0.9040 -0.3023
vn 0.5510 -0.6267 -0.5510
vn 0.0860 0.9926 -0.0860
vn 0.6856 0.2445 -0.6856
vn 0.2276 0.9468 -0.2276
vn 0.4929 0.7170 -0.4929
vn 0.1011 -0.9926 -0.0675
vn 0.8148 -0.1994 -0.5444
vn 0.3555 -0.9040 -0.2375
vn 0.6479 -0.6267 -0.4329
vn 0.1011 0.9926 -0.0675
vn 0.8062 0.2445 -0.5387
vn 0.2677 0.9468 -0.1789
vn 0.5796 0.7170 -0.3873
vn 0.1123 -0.9926 -0.0465
vn 0.9053 -0.1994 -0.3750
vn 0.3950 -0.9040 -0.1636
vn 0.7199 -0.6267 -0.2982
vn 0.1123 0.9926 -0.0465
vn 0.8958 0.2445 -0.3711
vn 0.2974 0.9468 -0.1232
vn 0.6440 0.7170 -0.2668
vn 0.1192 -0.9926 -0.0237
vn 0.9611 -0.1994 -0.1912
vn 0.4193 -0.9040 -0.0834
vn 0.7643 -0.6267 -0.1520
vn 0.1192 0.9926 -0.0237
vn 0.9510 0.2445 -0.1892
vn 0.3157 0.9468 -0.0628
vn 0.6837 0.7170 -0.1360
vn 0.1216 -0.9926 -0.0000
vn 0.9799 -0.1994 -0.0000
vn 0.4276 -0.9040 -0.0000
vn 0.7792 -0.6267 -0.0000
vn 0.1216 0.9926 -0.0000
vn 0.9696 0.2445 -0.0000
vn 0.3219 0.9468 -0.0000
vn 0.6971 0.7170 -0.0000
vn 0.1192 -0.9926 0.0237
vn 0.9611 -0.1994 0.1912
vn 0.4193 -0.9040 0.0834
vn 0.7643 -0.6267 0.1520
vn 0.1192 0.9926 0.0237
vn 0.9510 0.2445 0.1892
vn 0.3157 0.9468 0.0628
vn 0.6837 0.7170 0.1360
vn 0.1123 -0.9926 0.0465
vn 0.9053 -0.1994 0.3750
vn 0.3950 -0.9040 0.1636
vn 0.7199 -0.6267 0.2982
vn 0.1123 0.9926 0.0465
vn 0.8958 0.2445 0.3711
vn 0.2974 0.9468 0.1232
vn 0.6440 0.7170 0.2668
vn 0.1011 -0.9926 0.0675
vn 0.8148 -0.1994 0.5444
vn 0.3555 -0.9040 0.2375
vn 0.6479 -0.6267 0.4329
vn 0.1011 0.9926 0.0675
vn 0.8062 0.2445 0.5387
vn 0.2677 0.9468 0.1789
vn 0.5796 0.7170 0.3873
vn 0.0860 -0.9926 0.0860
vn 0.6929 -0.1994 0.6929
vn 0.3023 -0.9040 0.3023
vn 0.5510 -0.6267 0.5510
vn 0.0860 0.9926 0.0860
vn 0.6856 0.2445 0.6856
vn 0.2276 0.9468 0.2276
vn 0.4929 0.7170 0.4929
vn 0.0675 -0.9926 0.1011
vn 0.5444 -0.1994 0.8148
vn 0.2375 -0.9040 0.3555
vn 0.4329 -0.6267 0.6479
vn 0.0675 0.9926 0.1011
vn 0.5387 0.2445 0.8062
vn 0.1789 0.9468 0.2677
vn 0.3873 0.7170 0.5796
vn 0.0465 -0.9926 0.1123
vn 0.3750 -0.1994 0.9053
vn 0.1636 -0.9040 0.3950
vn 0.2982 -0.6267 0.7199
vn 0.0465 0.9926 0.1123
vn 0.3711 0.2445 0.8958
vn 0.1232 0.9468 0.2974
vn 0.2668 0.7170 0.6440
vn 0.0237 -0.9926 0.1192
vn 0.1912 -0.1994 0.9611
vn 0.0834 -0.9040 0.4193
vn 0.1520 -0.6267 0.7643
vn 0.0237 0.9926 0.1192
vn 0.1892 0.2445 0.9510
vn 0.0628 0.9468 0.3157
vn 0.1360 0.7170 0.6837
vn -0.0000 -0.9926 0.1216
vn -0.0000 -0.1994 0.9799
vn -0.0000 -0.9040 0.4276
vn -0.0000 -0.6267 0.7792
vn -0.0000 0.9926 0.1216
vn -0.0000 0.2445 0.9696
vn -0.0000 0.9468 0.3219
vn -0.0000 0.7170 0.6971
vn -0.0237 -0.9926 0.1192
vn -0.1912 -0.1994 0.9611
vn -0.0834 -0.9040 0.4193
vn -0.1520 -0.6267 0.7643
vn -0.0237 0.9926 0.1192
vn -0.1892 0.2445 0.9510
vn -0.0628 0.9468 0.3157
vn -0.1360 0.7170 0.6837
vn -0.0465 -0.9926 0.1123
vn -0.3750 -0.1994 0.9053
vn -0.1636 -0.9040 0.3950
vn -0.2982 -0.6267 0.7199
vn -0.0465 0.9926 0.1123
vn -0.3711 0.2445 0.8958
vn -0.1232 0.9468 0.2974
vn -0.2668 0.7170 0.6440
vn -0.0675 -0.9926 0.1011
vn -0.5444 -0.1994 0.8148
vn -0.2375 -0.9040 0.3555
vn -0.4329 -0.6267 0.6479
vn -0.0675 0.9926 0.1011
vn -0.5387 0.2445 0.8062
vn -0.1789 0.9468 0.2677
vn -0.3873 0.7170 0.5796
vn -0.0860 -0.9926 0.0860
vn -0.6929 -0.1994 0.6929
vn -0.3023 -0.9040 0.3023
vn -0.5510 -0.6267 0.5510
vn -0.0860 0.9926 0.0860
vn -0.6856 0.2445 0.6856
vn -0.2276 0.9468 0.2276
vn -0.4929 0.7170 0.4929
vn -0.1011 -0.9926 0.0675
vn -0.8148 -0.1994 0.5444
vn -0.3555 -0.9040 0.2375
vn -0.6479 -0.6267 0.4329
vn -0.1011 0.9926 0.0675
vn -0.8062 0.2445 0.5387
vn -0.2677 0.9468 0.1789
vn -0.5796 0.7170 0.3873
vn -0.1123 -0.9926 0.0465
vn -0.9053 -0.1994 0.3750
vn -0.3950 -0.9040 0.1636
vn -0.7199 -0.6267 0.2982
vn -0.1123 0.9926 0.0465
vn -0.8958 0.2445 0.3711
vn -0.2974 0.9468 0.1232
vn -0.6440 0.7170 0.2668
vn -0.1192 -0.9926 0.0237
vn -0.9611 -0.1994 0.1912
vn -0.4193 -0.9040 0.0834
vn -0.7643 -0.6267 0.1520
vn -0.1192 0.9926 0.0237
vn -0.9510 0.2445 0.1892
vn -0.3157 0.9468 0.0628
vn -0.6837 0.7170 0.1360
vn -0.1216 -0.9926 -0.0000
vn -0.9799 -0.1994 -0.0000
vn -0.4276 -0.9040 -0.0000
vn -0.7792 -0.6267 -0.0000
vn -0.1216 0.9926 -0.0000
vn -0.9696 0.2445 -0.0000
vn -0.3219 0.9468 -0.0000
vn -0.6971 0.7170 -0.0000
vn -0.1192 -0.9926 -0.0237
vn -0.9611 -0.1994 -0.1912
vn -0.4193 -0.9040 -0.0834
vn -0.7643 -0.6267 -0.1520
vn -0.1192 0.9926 -0.0237
vn -0.9510 0.2445 -0.1892
vn -0.3157 0.9468 -0.0628
vn -0.6837 0.7170 -0.1360
vn -0.1123 -0.9926 -0.0465
vn -0.9053 -0.1994 -0.3750
vn -0.3950 -0.9040 -0.1636
vn -0.7199 -0.6267 -0.2982
vn -0.1123 0.9926 -0.0465
vn -0.8958 0.2445 -0.3711
vn -0.2974 0.9468 -0.1232
vn -0.6440 0.7170 -0.2668
vn -0.1011 -0.9926 -0.0675
vn -0.8148 -0.1994 -0.5444
vn -0.3555 -0.9040 -0.2375
vn -0.6479 -0.6267 -0.4329
vn -0.1011 0.9926 -0.0675
vn -0.8062 0.2445 -0.5387
vn -0.2677 0.9468 -0.1789
vn -0.5796 0.7170 -0.3873
vn -0.0860 -0.9926 -0.0860
vn -0.6929 -0.1994 -0.6929
vn -0.3023 -0.9040 -0.3023
vn -0.5510 -0.6267 -0.5510
vn -0.0860 0.9926 -0.0860
vn -0.6856 0.2445 -0.6856
vn -0.2276 0.9468 -0.2276
vn -0.4929 0.7170 -0.4929
vn -0.0675 -0.9926 -0.1011
vn -0.5444 -0.1994 -0.8148
vn -0.2375 -0.9040 -0.3555
vn -0.4329 -0.6267 -0.6479
vn -0.0675 0.9926 -0.1011
vn -0.5387 0.2445 -0.8062
vn -0.1789 0.9468 -0.2677
vn -0.3873 0.7170 -0.5796
vn -0.0465 -0.9926 -0.1123
vn -0.3750 -0.1994 -0.9053
vn -0.1636 -0.9040 -0.3950
vn -0.2982 -0.6267 -0.7199
vn -0.0465 0.9926 -0.1123
vn -0.3711 0.2445 -0.8958
vn -0.1232 0.9468 -0.2974
vn -0.2668 0.7170 -0.6440
vn -0.0237 -0.9926 -0.1192
vn -0.1912 -0.1994 -0.9611
vn -0.0834 -0.9040 -0.4193
vn -0.1520 -0.6267 -0.7643
vn -0.0237 0.9926 -0.1192
vn -0.1892 0.2445 -0.9510
vn -0.0628 0.9468 -0.3157
vn -0.1360 0.7170 -0.6837
vt 0.005859 0.993380
vt 0.904803 0.341452
vt 0.821382 0.341452
vt 0.821382 0.260437
vt 0.904803 0.260437
vt 0.821382 0.668842
vt 0.904803 0.668842
vt 0.904803 0.736410
vt 0.821382 0.736410
vt 0.737960 0.341452
vt 0.737960 0.260437
vt 0.737960 0.668842
vt 0.737960 0.736410
vt 0.654539 0.341452
vt 0.654539 0.260437
vt 0.654539 0.668842
vt 0.654539 0.736410
vt 0.571117 0.341452
vt 0.571117 0.260437
vt 0.571117 0.668842
vt 0.571117 0.736410
vt 0.487696 0.341452
vt 0.487696 0.260437
vt 0.487696 0.668842
vt 0.487696 0.736410
vt 0.404275 0.341452
vt 0.404275 0.260437
vt 0.404275 0.668842
vt 0.404275 0.736410
vt 0.320853 0.341452
vt 0.320853 0.260437
vt 0.320853 0.668842
vt 0.320853 0.736410
vt 0.237432 0.341452
vt 0.237432 0.260437
vt 0.237432 0.668842
vt 0.237432 0.736410
vt 0.154010 0.341452
vt 0.154010 0.260437
vt 0.154010 0.668842
vt 0.154010 0.736410
vt 0.070589 0.341452
vt 0.070589 0.260437
vt 0.070589 0.668842
vt 0.070589 0.736410
s 1
usemtl Material.001
f 2/1/2 10/1/10 12/1/12 4/1/4
f 4/1/4 12/1/12 11/1/11 3/1/3
f 3/1/3 11/1/11 9/1/9 1/1/1
f 14/1/14 6/1/6 8/1/8 16/1/16
f 16/1/16 8/1/8 7/1/7 15/1/15
f 15/1/15 7/1/7 5/1/5 13/1/13
f 10/1/10 18/1/18 20/1/20 12/1/12
f 12/1/12 20/1/20 19/1/19 11/1/11
f 11/1/11 19/1/19 17/1/17 9/1/9
f 22/1/22 14/1/14 16/1/16 24/1/24
f 24/1/24 16/1/16 15/1/15 23/1/23
f 23/1/23 15/1/15 13/1/13 21/1/21
f 18/1/18 26/1/26 28/1/28 20/1/20
f 20/1/20 28/1/28 27/1/27 19/1/19
f 19/1/19 27/1/27 25/1/25 17/1/17
f 30/1/30 22/1/22 24/1/24 32/1/32
f 32/1/32 24/1/24 23/1/23 31/1/31
f 31/1/31 23/1/23 21/1/21 29/1/29
f 26/2/26 34/3/34 36/4/36 28/5/28
f 28/1/28 36/1/36 35/1/35 27/1/27
f 27/1/27 35/1/35 33/1/33 25/1/25
f 38/6/38 30/7/30 32/8/32 40/9/40
f 40/1/40 32/1/32 31/1/31 39/1/39
f 39/1/39 31/1/31 29/1/29 37/1/37
f 34/3/34 42/10/42 44/11/44 36/4/36
f 36/1/36 44/1/44 43/1/43 35/1/35
f 35/1/35 43/1/43 41/1/41 33/1/33
f 46/12/46 38/6/38 40/9/40 48/13/48
f 48/1/48 40/1/40 39/1/39 47/1/47
f 47/1/47 39/1/39 37/1/37 45/1/45
f 42/10/42 50/14/50 52/15/52 44/11/44
f 44/1/44 52/1/52 51/1/51 43/1/43
f 43/1/43 51/1/51 49/1/49 41/1/41
f 54/16/54 46/12/46 48/13/48 56/17/56
f 56/1/56 48/1/48 47/1/47 55/1/55
f 55/1/55 47/1/47 45/1/45 53/1/53
f 50/14/50 58/18/58 60/19/60 52/15/52
f 52/1/52 60/1/60 59/1/59 51/1/51
f 51/1/51 59/1/59 57/1/57 49/1/49
f 62/20/62 54/16/54 56/17/56 64/21/64
f 64/1/64 56/1/56 55/1/55 63/1/63
f 63/1/63 55/1/55 53/1/53 61/1/61
f 58/18/58 66/22/66 68/23/68 60/19/60
f 60/1/60 68/1/68 67/1/67 59/1/59
f 59/1/59 67/1/67 65/1/65 57/1/57
f 70/24/70 62/20/62 64/21/64 72/25/72
f 72/1/72 64/1/64 63/1/63 71/1/71
f 71/1/71 63/1/63 61/1/61 69/1/69
f 66/22/66 74/26/74 76/27/76 68/23/68
f 68/1/68 76/1/76 75/1/75 67/1/67
f 67/1/67 75/1/75 73/1/73 65/1/65
f 78/28/78 70/24/70 72/25/72 80/29/80
f 80/1/80 72/1/72 71/1/71 79/1/79
f 79/1/79 71/1/71 69/1/69 77/1/77
f 74/26/74 82/30/82 84/31/84 76/27/76
f 76/1/76 84/1/84 83/1/83 75/1/75
f 75/1/75 83/1/83 81/1/81 73/1/73
f 86/32/86 78/28/78 80/29/80 88/33/88
f 88/1/88 80/1/80 79/1/79 87/1/87
f 87/1/87 79/1/79 77/1/77 85/1/85
f 82/30/82 90/34/90 92/35/92 84/31/84
f 84/1/84 92/1/92 91/1/91 83/1/83
f 83/1/83 91/1/91 89/1/89 81/1/81
f 94/36/94 86/32/86 88/33/88 96/37/96
f 96/1/96 88/1/88 87/1/87 95/1/95
f 95/1/95 87/1/87 85/1/85 93/1/93
f 90/34/90 98/38/98 100/39/100 92/35/92
f 92/1/92 100/1/100 99/1/99 91/1/91
f 91/1/91 99/1/99 97/1/97 89/1/89
f 102/40/102 94/36/94 96/37/96 104/41/104
f 104/1/104 96/1/96 95/1/95 103/1/103
f 103/1/103 95/1/95 93/1/93 101/1/101
f 98/38/98 106/42/106 108/43/108 100/39/100
f 100/1/100 108/1/108 107/1/107 99/1/99
f 99/1/99 107/1/107 105/1/105 97/1/97
f 110/44/110 102/40/102 104/41/104 112/45/112
f 112/1/112 104/1/104 103/1/103 111/1/111
f 111/1/111 103/1/103 101/1/101 109/1/109
f 106/1/106 114/1/114 116/1/116 108/1/108
f 108/1/108 116/1/116 115/1/115 107/1/107
f 107/1/107 115/1/115 113/1/113 105/1/105
f 118/1/118 110/1/110 112/1/112 120/1/120
f 120/1/120 112/1/112 111/1/111 119/1/119
f 119/1/119 111/1/111 109/1/109 117/1/117
f 114/1/114 122/1/122 124/1/124 116/1/116
f 116/1/116 124/1/124 123/1/123 115/1/115
f 115/1/115 123/1/123 121/1/121 113/1/113
f 126/1/126 118/1/118 120/1/120 128/1/128
f 128/1/128 120/1/120 119/1/119 127/1/127
f 127/1/127 119/1/119 117/1/117 125/1/125
f 122/1/122 130/1/130 132/1/132 124/1/124
f 124/1/124 132/1/132 131/1/131 123/1/123
f 123/1/123 131/1/131 129/1/129 121/1/121
f 134/1/134 126/1/126 128/1/128 136/1/136
f 136/1/136 128/1/128 127/1/127 135/1/135
f 135/1/135 127/1/127 125/1/125 133/1/133
f 130/1/130 138/1/138 140/1/140 132/1/132
f 132/1/132 140/1/140 139/1/139 131/1/131
f 131/1/131 139/1/139 137/1/137 129/1/129
f 142/1/142 134/1/134 136/1/136 144/1/144
f 144/1/144 136/1/136 135/1/135 143/1/143
f 143/1/143 135/1/135 133/1/133 141/1/141
f 138/1/138 146/1/146 148/1/148 140/1/140
f 140/1/140 148/1/148 147/1/147 139/1/139
f 139/1/139 147/1/147 145/1/145 137/1/137
f 150/1/150 142/1/142 144/1/144 152/1/152
f 152/1/152 144/1/144 143/1/143 151/1/151
f 151/1/151 143/1/143 141/1/141 149/1/149
f 146/1/146 154/1/154 156/1/156 148/1/148
f 148/1/148 156/1/156 155/1/155 147/1/147
f 147/1/147 155/1/155 153/1/153 145/1/145
f 158/1/158 150/1/150 152/1/152 160/1/160
f 160/1/160 152/1/152 151/1/151 159/1/159
f 159/1/159 151/1/151 149/1/149 157/1/157
f 154/1/154 162/1/162 164/1/164 156/1/156
f 156/1/156 164/1/164 163/1/163 155/1/155
f 155/1/155 163/1/163 161/1/161 153/1/153
f 166/1/166 158/1/158 160/1/160 168/1/168
f 168/1/168 160/1/160 159/1/159 167/1/167
f 167/1/167 159/1/159 157/1/157 165/1/165
f 162/1/162 170/1/170 172/1/172 164/1/164
f 164/1/164 172/1/172 171/1/171 163/1/163
f 163/1/163 171/1/171 169/1/169 161/1/161
f 174/1/174 166/1/166 168/1/168 176/1/176
f 176/1/176 168/1/168 167/1/167 175/1/175
f 175/1/175 167/1/167 165/1/165 173/1/173
f 170/1/170 178/1/178 180/1/180 172/1/172
f 172/1/172 180/1/180 179/1/179 171/1/171
f 171/1/171 179/1/179 177/1/177 169/1/169
f 182/1/182 174/1/174 176/1/176 184/1/184
f 184/1/184 176/1/176 175/1/175 183/1/183
f 183/1/183 175/1/175 173/1/173 181/1/181
f 178/1/178 186/1/186 188/1/188 180/1/180
f 180/1/180 188/1/188 187/1/187 179/1/179
f 179/1/179 187/1/187 185/1/185 177/1/177
f 190/1/190 182/1/182 184/1/184 192/1/192
f 192/1/192 184/1/184 183/1/183 191/1/191
f 191/1/191 183/1/183 181/1/181 189/1/189
f 186/1/186 194/1/194 196/1/196 188/1/188
f 188/1/188 196/1/196 195/1/195 187/1/187
f 187/1/187 195/1/195 193/1/193 185/1/185
f 198/1/198 190/1/190 192/1/192 200/1/200
f 200/1/200 192/1/192 191/1/191 199/1/199
f 199/1/199 191/1/191 189/1/189 197/1/197
f 194/1/194 202/1/202 204/1/204 196/1/196
f 196/1/196 204/1/204 203/1/203 195/1/195
f 195/1/195 203/1/203 201/1/201 193/1/193
f 206/1/206 198/1/198 200/1/200 208/1/208
f 208/1/208 200/1/200 199/1/199 207/1/207
f 207/1/207 199/1/199 197/1/197 205/1/205
f 202/1/202 210/1/210 212/1/212 204/1/204
f 204/1/204 212/1/212 211/1/211 203/1/203
f 203/1/203 211/1/211 209/1/209 201/1/201
f 214/1/214 206/1/206 208/1/208 216/1/216
f 216/1/216 208/1/208 207/1/207 215/1/215
f 215/1/215 207/1/207 205/1/205 213/1/213
f 210/1/210 218/1/218 220/1/220 212/1/212
f 212/1/212 220/1/220 219/1/219 211/1/211
f 211/1/211 219/1/219 217/1/217 209/1/209
f 222/1/222 214/1/214 216/1/216 224/1/224
f 224/1/224 216/1/216 215/1/215 223/1/223
f 223/1/223 215/1/215 213/1/213 221/1/221
f 218/1/218 226/1/226 228/1/228 220/1/220
f 220/1/220 228/1/228 227/1/227 219/1/219
f 219/1/219 227/1/227 225/1/225 217/1/217
f 230/1/230 222/1/222 224/1/224 232/1/232
f 232/1/232 224/1/224 223/1/223 231/1/231
f 231/1/231 223/1/223 221/1/221 229/1/229
f 226/1/226 234/1/234 236/1/236 228/1/228
f 228/1/228 236/1/236 235/1/235 227/1/227
f 227/1/227 235/1/235 233/1/233 225/1/225
f 238/1/238 230/1/230 232/1/232 240/1/240
f 240/1/240 232/1/232 231/1/231 239/1/239
f 239/1/239 231/1/231 229/1/229 237/1/237
f 234/1/234 242/1/242 244/1/244 236/1/236
f 236/1/236 244/1/244 243/1/243 235/1/235
f 235/1/235 243/1/243 241/1/241 233/1/233
f 246/1/246 238/1/238 240/1/240 248/1/248
f 248/1/248 240/1/240 239/1/239 247/1/247
f 247/1/247 239/1/239 237/1/237 245/1/245
f 242/1/242 250/1/250 252/1/252 244/1/244
f 244/1/244 252/1/252 251/1/251 243/1/243
f 243/1/243 251/1/251 249/1/249 241/1/241
f 254/1/254 246/1/246 248/1/248 256/1/256
f 256/1/256 248/1/248 247/1/247 255/1/255
f 255/1/255 247/1/247 245/1/245 253/1/253
f 250/1/250 2/1/2 4/1/4 252/1/252
f 252/1/252 4/1/4 3/1/3 251/1/251
f 251/1/251 3/1/3 1/1/1 249/1/249
f 6/1/6 254/1/254 256/1/256 8/1/8
f 8/1/8 256/1/256 255/1/255 7/1/7
f 7/1/7 255/1/255 253/1/253 5/1/5
f 1/1/1 9/1/9 17/1/17 25/1/25 33/1/33 41/1/41 49/1/49 57/1/57 65/1/65 73/1/73 81/1/81 89/1/89 97/1/97 105/1/105 113/1/113 121/1/121 129/1/129 137/1/137 145/1/145 153/1/153 161/1/161 169/1/169 177/1/177 185/1/185 193/1/193 201/1/201 209/1/209 217/1/217 225/1/225 233/1/233 241/1/241 249/1/249
f 2/1/2 6/1/6 14/1/14 10/1/10
f 250/1/250 254/1/254 6/1/6 2/1/2
f 13/1/13 5/1/5 253/1/253 245/1/245 237/1/237 229/1/229 221/1/221 213/1/213 205/1/205 197/1/197 189/1/189 181/1/181 173/1/173 165/1/165 157/1/157 149/1/149 141/1/141 133/1/133 125/1/125 117/1/117 109/1/109 101/1/101 93/1/93 85/1/85 77/1/77 69/1/69 61/1/61 53/1/53 45/1/45 37/1/37 29/1/29 21/1/21
f 10/1/10 14/1/14 22/1/22 18/1/18
f 18/1/18 22/1/22 30/1/30 26/1/26
f 26/2/26 30/7/30 38/6/38 34/3/34
f 34/3/34 38/6/38 46/12/46 42/10/42
f 42/10/42 46/12/46 54/16/54 50/14/50
f 50/14/50 54/16/54 62/20/62 58/18/58
f 58/18/58 62/20/62 70/24/70 66/22/66
f 66/22/66 70/24/70 78/28/78 74/26/74
f 74/26/74 78/28/78 86/32/86 82/30/82
f 82/30/82 86/32/86 94/36/94 90/34/90
f 90/34/90 94/36/94 102/40/102 98/38/98
f 98/38/98 102/40/102 110/44/110 106/42/106
f 106/1/106 110/1/110 118/1/118 114/1/114
f 114/1/114 118/1/118 126/1/126 122/1/122
f 122/1/122 126/1/126 134/1/134 130/1/130
f 130/1/130 134/1/134 142/1/142 138/1/138
f 138/1/138 142/1/142 150/1/150 146/1/146
f 146/1/146 150/1/150 158/1/158 154/1/154
f 154/1/154 158/1/158 166/1/166 162/1/162
f 162/1/162 166/1/166 174/1/174 170/1/170
f 170/1/170 174/1/174 182/1/182 178/1/178
f 178/1/178 182/1/182 190/1/190 186/1/186
f 186/1/186 190/1/190 198/1/198 194/1/194
f 194/1/194 198/1/198 206/1/206 202/1/202
f 202/1/202 206/1/206 214/1/214 210/1/210
f 210/1/210 214/1/214 222/1/222 218/1/218
f 218/1/218 222/1/222 230/1/230 226/1/226
f 226/1/226 230/1/230 238/1/238 234/1/234
f 234/1/234 238/1/238 246/1/246 242/1/242
f 242/1/242 246/1/246 254/1/254 250/1/250
